<?xml version="1.0" encoding="utf-8"?>
<!-- Generator: Adobe Illustrator 17.0.2, SVG Export Plug-In . SVG Version: 6.00 Build 0)  -->
<!DOCTYPE svg PUBLIC "-//W3C//DTD SVG 1.1//EN" "http://www.w3.org/Graphics/SVG/1.1/DTD/svg11.dtd">
<svg version="1.1" id="Layer_1" xmlns="http://www.w3.org/2000/svg" xmlns:xlink="http://www.w3.org/1999/xlink" x="0px" y="0px"
	 width="303.9px" height="103.4px" viewBox="0 0 303.9 103.4" style="enable-background:new 0 0 303.9 103.4;" xml:space="preserve"
	>
<style type="text/css">
	.st0{fill:#FFFFFF;}
</style>
<g>
	<rect x="0.3" y="0" width="103.4" height="103.4"/>
	<g>
		<path class="st0" d="M30,64.4c-0.3-0.1-2.5-1.1-3.1-1.4c-0.6-0.3-0.7-0.8-0.7-1.2c0-0.4,0.3-23.6,0.2-23.8c0-0.1-0.2-0.1-0.3,0
			C25.7,38.4,3.3,62.9,2.9,63.2c-0.8,0.6-2.4,1.2-2.5,1.2c0,0-0.4,0.1-0.4,0.2c0,0,0.4,0,0.4,0c0,0,11.7,0,11.8,0
			c0.2,0,0.2-0.1,0.1-0.2c-0.9-0.2-4.7-1-5.4-1.2c-0.6-0.2-0.7-0.6-0.5-0.9c0.2-0.3,6.3-7.8,6.7-8.1c0.6-0.4,0.8-0.5,1.8-0.5
			c0.3,0,2.1,0,3.8,0c1.4,0,2.8,0.2,3.2,0.2c0.9,0.1,0.8,0.7,0.8,1.1c0,0.3-0.3,5.8-0.3,6.7c0,1-0.2,1.1-0.8,1.3
			c-0.3,0.1-4.3,1.4-4.5,1.5c-0.1,0.1,0.1,0.1,0.1,0.1s12.5,0,12.6,0C30.1,64.6,30.1,64.5,30,64.4z M22.9,51.9
			c0,0.5-0.2,0.8-1.1,0.8c-0.9,0-6.1,0-6.1,0c-0.9,0-0.9-0.5-0.6-0.9c0.3-0.4,6.8-7.3,7-7.6c0.5-0.5,0.9-0.5,0.9,0.2
			C23,45.1,22.9,51.5,22.9,51.9z"/>
		<path class="st0" d="M98.9,64.4c-0.3-0.1-2.5-1.1-3.1-1.4c-0.6-0.3-0.7-0.8-0.7-1.2c0-0.4,0.3-23.6,0.2-23.8
			c-0.1-0.1-0.2-0.1-0.3,0c-0.4,0.4-22.8,24.8-23.2,25.1c-0.8,0.6-2.4,1.2-2.5,1.2c-0.1,0-0.1,0.2,0,0.2c0,0,11.7,0,11.8,0
			c0.2,0,0.2-0.1,0.1-0.2c-0.9-0.2-4.7-1-5.4-1.2c-0.6-0.2-0.7-0.6-0.5-0.9c0.2-0.3,6.3-7.8,6.7-8.1c0.6-0.4,0.8-0.5,1.8-0.5
			c0.3,0,2.1,0,3.8,0c1.4,0,2.8,0.2,3.2,0.2c0.9,0.1,0.8,0.7,0.8,1.1c0,0.3-0.3,5.8-0.3,6.7c0,1-0.2,1.1-0.8,1.3
			c-0.3,0.1-4.3,1.4-4.5,1.5c-0.1,0.1,0,0.1,0,0.1s12.5,0,12.6,0C98.9,64.6,99,64.5,98.9,64.4z M91.8,51.9c0,0.5-0.2,0.8-1.1,0.8
			c-0.9,0-6.1,0-6.1,0c-0.9,0-0.9-0.5-0.6-0.9c0.4-0.4,6.8-7.3,7-7.6c0.5-0.5,0.9-0.5,0.9,0.2C91.9,45.1,91.8,51.5,91.8,51.9z"/>
		<path class="st0" d="M35.7,38.9c0.1,0,12.1,0,12.2,0c0.1,0,0.3,0.1,0.1,0.2c-0.2,0.1-2.2,0.6-2.4,0.7c-0.2,0.1-1,0.3-1.3,0.5
			c-0.6,0.3-0.8,0.6-1,1.1c-0.1,0.4-4.9,20.4-4.9,20.7c-0.1,0.5-0.1,0.8,0.4,1.1c0.5,0.2,3.2,1.2,3.5,1.3c0.2,0.1,0.2,0.2-0.1,0.2
			c-0.2,0-11.5,0-11.6,0c-0.2,0-0.3-0.1-0.1-0.2c0.2-0.1,2.8-1,3.1-1.1c0.3-0.1,0.9-0.4,1.1-0.9c0.1-0.4,5-20.6,5.1-20.9
			c0.1-0.5,0.1-1-0.5-1.2c-0.3-0.1-3.3-1.1-3.4-1.2C35.5,39,35.5,38.9,35.7,38.9z"/>
		<path class="st0" d="M70.4,48.1c0-0.2,0.3-6.5,0.3-6.8c0-0.7,0-1.1-0.8-1.3c-1-0.3-6-0.8-9.7,0.9c-6.2,2.9-9.7,9.5-9,14.8
			c0.6,4.4,4.1,7.9,9.6,8.1c1.7,0,3-0.2,3.4-0.3c0.5-0.2,0.6-0.3,0.7-0.6c0.1-0.3,1-4.2,1.1-4.4c0-0.2,0.3-0.7-0.3-0.9
			c-0.6-0.1-5.6-1.5-5.8-1.6c-0.3-0.1-0.1-0.2,0.1-0.2c0.2,0,9,0,9.4,0c0.4,0,1.4-0.1,1.1,0.8c-0.3,0.9-1.7,5.4-1.8,5.7
			c-0.1,0.3-0.4,0.5-0.7,0.6c-0.3,0.1-4.4,1.7-8.4,1.8C49.3,65.1,45.6,58,47.4,51.5c0.9-3.4,3.1-6.6,6-8.8c1.6-1.3,6.4-4.2,12.7-4.2
			c1.2,0,4.2,0.2,6.4,0.7c1.1,0.3,0.9,0.9,0.8,1.3c-0.1,0.2-2.4,7.4-2.5,7.6C70.6,48.4,70.4,48.4,70.4,48.1z"/>
	</g>
</g>
<g>
	<path d="M138.6,74.2c-4.6,0-8-2.2-9.9-3.9c-0.7,0.4-1.4,1.4-1.4,2.5c0,0.4-0.1,1.2-1,1.2c-1.1,0-1.1-0.8-1.1-1.1V59.6
		c0-0.6,0.3-1.1,1.1-1.1c1,0,1.1,0.6,1.1,1.1c0,6.9,4.6,11.5,11.5,11.5c4.6,0,9.5-3,9.5-8.6c0-5.2-4.3-7.9-8.4-9l-2.8-0.8
		C129,50.3,125,45.3,125,38.5c0-7.7,6.8-12.5,13-12.5c4.3,0,7.2,1.4,8.9,3.2c0.5-0.4,1.2-1.1,1.2-2c0-0.4,0.1-1.1,1-1.1
		c1.1,0,1.1,0.7,1.1,1.1v11.6c0,0.6-0.2,1.1-1.1,1.1c-0.9,0-1.1-0.6-1.1-1.1c0-4.1-2.1-9.9-9.9-9.9c-4.9,0-8.6,3.2-8.6,8.5
		c0,4.9,3.8,7.3,7.4,8.3l3.4,1.1c7.2,2.1,13,6.1,13,13.9C153.4,68.9,146.7,74.2,138.6,74.2z"/>
	<path d="M163.6,59c0,8.6,3.1,12.8,8.2,12.8c4.4,0,7.2-2.1,8.6-6c0.2-0.5,0.5-1.1,1.1-1.1c0.8,0,1.1,0.6,1.1,1.1
		c0,0.4-0.1,1-0.3,1.4c-2.4,5.5-7.3,7.1-11.4,7.1c-6.2,0-13.1-5.6-13.1-15.2c0-9.1,6.4-15.1,13.1-15.1c7.6,0,12.1,5.6,11.4,12.5
		h-18.7C163.6,57.1,163.6,58.1,163.6,59z M176.6,53.9c0.2-0.6,0.4-1.6,0.4-2.4c0-3.6-2.4-5.3-5.4-5.3c-3.4,0-6.6,1.4-7.6,7.7H176.6z
		"/>
	<path d="M196.6,50.1c0,1.6-1.3,3-2.9,3c-1.7,0-2.9-1.4-2.9-3c0-3.4,4.9-6.3,9.1-6.3c6.1,0,9.7,2.9,9.7,9.6v15.6
		c0,2,0.4,2.6,1.4,2.6c0.9,0,1-0.9,1.8-1.5c0.5-0.4,1.1-0.4,1.6,0.1c0.4,0.5,0.1,1.4-0.4,1.8c-1.9,1.5-3.4,1.6-4.9,1.6
		c-2.4,0-4.1-1.7-4.5-4.1c-3.4,3.1-6.6,4.3-9.4,4.3c-3.8,0-6.9-2.3-6.9-6.6c0-6.8,7.9-9.6,16.1-9.6v-7c0-3.4-1.7-4.8-4.6-4.8
		c-2.6,0-4,0.9-4.6,1.7C196.1,48.2,196.6,49.1,196.6,50.1z M204.6,59.9c-7.8,0-10.8,2.4-10.8,6.6c0,2.6,1.8,4.4,3.9,4.4
		c1.5,0,3.6-0.5,6.9-3.4V59.9z"/>
	<path d="M234.1,44.9c0.5,0,1.1,0.4,1.1,1.2c0,0.8-0.6,1.2-1.1,1.2c-0.7,0-3.5-0.1-7-0.1v21.5c0,2,0.7,2.9,2.1,2.9
		c1.9,0,2.9-1.6,3-3.1c0.1-0.9,0.6-1.4,1.2-1.4c0.5,0,1,0.4,1,1.1c0,2.3-2,5.3-6.5,5.3c-3.3,0-5.9-1.9-5.9-6.1V47.2
		c-3.5,0-4.5,0.1-5.2,0.1c-0.5,0-1.1-0.4-1.1-1.2c0-0.8,0.6-1.2,1.1-1.2c5,0,6.5-0.8,7.4-5.4c0.8-3.9,1-4.6,1.9-4.6
		c0.8,0,0.9,0.8,0.9,2.1V45C230.7,44.9,233.6,44.9,234.1,44.9z"/>
	<path d="M256.7,44.9c0.5,0,1.1,0.4,1.1,1.2c0,0.8-0.6,1.2-1.1,1.2c-0.7,0-3.5-0.1-7-0.1v21.5c0,2,0.7,2.9,2.1,2.9
		c1.9,0,2.9-1.6,3-3.1c0.1-0.9,0.6-1.4,1.2-1.4c0.5,0,1,0.4,1,1.1c0,2.3-2,5.3-6.5,5.3c-3.3,0-5.9-1.9-5.9-6.1V47.2
		c-3.5,0-4.5,0.1-5.2,0.1c-0.5,0-1.1-0.4-1.1-1.2c0-0.8,0.6-1.2,1.1-1.2c5,0,6.5-0.8,7.4-5.4c0.8-3.9,1-4.6,1.9-4.6
		c0.8,0,0.9,0.8,0.9,2.1V45C253.3,44.9,256.1,44.9,256.7,44.9z"/>
	<path d="M275.8,70.7c0.6,0,1.1,0.5,1.1,1.3c0,0.8-0.5,1.2-1.1,1.2c-0.7,0-1.1-0.4-6.9-0.4h-0.3c-5.9,0-6.3,0.4-7,0.4
		c-0.5,0-1.1-0.4-1.1-1.2c0-0.8,0.6-1.3,1.1-1.3c0.7,0,1.1,0.1,4.6,0.1V29.4c-3.4,0-3.9,0.2-4.6,0.2c-0.5,0-1.1-0.5-1.1-1.3
		c0-0.8,0.6-1.2,1.1-1.2c0.7,0,1.1,0.1,4.6,0.1c1.1,0,3.4-0.3,4-0.3c0.6,0,1.1,0.5,1.1,1.3c0,1.1,0,42.7,0,42.7
		C274.7,70.8,275.1,70.7,275.8,70.7z"/>
	<path d="M284.9,59c0,8.6,3.1,12.8,8.2,12.8c4.4,0,7.2-2.1,8.6-6c0.2-0.5,0.5-1.1,1.1-1.1c0.8,0,1.1,0.6,1.1,1.1
		c0,0.4-0.1,1-0.3,1.4c-2.4,5.5-7.3,7.1-11.4,7.1c-6.2,0-13.1-5.6-13.1-15.2c0-9.1,6.4-15.1,13.1-15.1c7.6,0,12.1,5.6,11.4,12.5
		h-18.7C284.9,57.1,284.9,58.1,284.9,59z M297.9,53.9c0.2-0.6,0.4-1.6,0.4-2.4c0-3.6-2.4-5.3-5.4-5.3c-3.4,0-6.6,1.4-7.6,7.7H297.9z
		"/>
</g>
</svg>
