<?xml version="1.0" encoding="utf-8"?>
<!-- Generator: Adobe Illustrator 17.1.0, SVG Export Plug-In . SVG Version: 6.00 Build 0)  -->
<!DOCTYPE svg PUBLIC "-//W3C//DTD SVG 1.1//EN" "http://www.w3.org/Graphics/SVG/1.1/DTD/svg11.dtd">
<svg version="1.1" id="Layer_1" xmlns="http://www.w3.org/2000/svg" xmlns:xlink="http://www.w3.org/1999/xlink" x="0px" y="0px"
	 viewBox="196 243 420 131" enable-background="new 196 243 420 131" xml:space="preserve">
<g>
	<polygon fill="#FFFFFF" points="216.5,267.7 279.1,267.7 279.1,281.2 231.3,281.2 231.3,304.1 273.7,304.1 273.7,317.6 
		231.3,317.6 231.3,351.8 216.5,351.8 	"/>
	<polygon fill="#FFFFFF" points="292.9,267.7 307.7,267.7 307.7,351.8 292.9,351.8 	"/>
	<polygon fill="#FFFFFF" points="323.9,267.7 338.7,267.7 338.7,338.4 382.9,338.4 382.9,351.8 323.9,351.8 	"/>
	<polygon fill="#FFFFFF" points="396.5,281.4 369.8,281.4 369.8,267.7 438,267.7 438,281.4 411.4,281.4 411.4,351.8 396.5,351.8 	
		"/>
	<polygon fill="#FFFFFF" points="450.1,267.7 512.4,267.7 512.4,280.9 464.8,280.9 464.8,302.8 507,302.8 507,316 464.8,316 
		464.8,338.6 513,338.6 513,351.8 450.1,351.8 	"/>
	<path fill="#FFFFFF" d="M563.2,309.4c10.6,0,17.3-5.5,17.3-14.1v-0.2c0-9-6.5-13.9-17.4-13.9h-21.5v28.2L563.2,309.4L563.2,309.4z
		 M526.8,267.7h37.5c10.6,0,18.9,3.1,24.3,8.4c4.4,4.6,7,10.8,7,18.1v0.2c0,13.8-8.3,22.1-20.1,25.5l22.7,31.8h-17.4l-20.7-29.3
		h-18.5v29.3h-14.8L526.8,267.7L526.8,267.7z"/>
</g>
</svg>
