<?xml version="1.0" encoding="utf-8"?>
<!-- Generator: Adobe Illustrator 17.1.0, SVG Export Plug-In . SVG Version: 6.00 Build 0)  -->
<!DOCTYPE svg PUBLIC "-//W3C//DTD SVG 1.1//EN" "http://www.w3.org/Graphics/SVG/1.1/DTD/svg11.dtd">
<svg version="1.1" xmlns="http://www.w3.org/2000/svg" xmlns:xlink="http://www.w3.org/1999/xlink" x="0px" y="0px"
	 viewBox="0 0 177.799 94.034" enable-background="new 0 0 177.799 94.034" xml:space="preserve">
<g id="Thinner_-_Inverse">
</g>
<g id="Thinner_-_Color">
</g>
<g id="Full_-_Inverse_1_">
	<g>
		<path fill="#FFFFFF" d="M54.112,81.493c0,0.417-0.15,0.774-0.446,1.071c-0.297,0.296-0.654,0.445-1.072,0.445h-8.91
			c-0.216,0-0.396-0.073-0.541-0.217c-0.145-0.146-0.218-0.326-0.218-0.541V73.15c0-0.215,0.073-0.395,0.218-0.54
			c0.145-0.145,0.325-0.218,0.541-0.218h8.91c0.418,0,0.776,0.149,1.072,0.446c0.296,0.296,0.446,0.654,0.446,1.071v1.517
			c0,0.215-0.074,0.394-0.219,0.54c-0.146,0.145-0.326,0.218-0.54,0.218h-1.517c-0.215,0-0.395-0.073-0.54-0.218
			c-0.146-0.146-0.219-0.325-0.219-0.54v-0.759c0-0.214-0.072-0.394-0.217-0.54c-0.145-0.146-0.325-0.218-0.541-0.218h-2.085
			c-0.216,0-0.396,0.072-0.541,0.218c-0.146,0.146-0.218,0.326-0.218,0.54v6.068c0,0.215,0.071,0.395,0.218,0.54
			c0.145,0.146,0.325,0.219,0.541,0.219h2.085c0.216,0,0.396-0.073,0.541-0.219c0.145-0.145,0.217-0.326,0.217-0.54v-0.759
			c0-0.214,0.073-0.395,0.219-0.54c0.145-0.145,0.326-0.217,0.54-0.217h1.517c0.213,0,0.394,0.073,0.54,0.217
			c0.145,0.145,0.219,0.326,0.219,0.54V81.493z"/>
		<path fill="#FFFFFF" d="M66.436,81.493c0,0.417-0.15,0.774-0.445,1.071c-0.298,0.296-0.655,0.445-1.072,0.445h-8.153
			c-0.417,0-0.774-0.149-1.072-0.445c-0.297-0.297-0.446-0.654-0.446-1.071v-7.584c0-0.418,0.149-0.775,0.446-1.071
			c0.298-0.297,0.655-0.446,1.072-0.446h8.153c0.417,0,0.774,0.149,1.072,0.446c0.296,0.296,0.445,0.654,0.445,1.071V81.493z
			 M63.402,79.975v-4.55c0-0.418-0.149-0.774-0.446-1.072c-0.296-0.297-0.653-0.445-1.071-0.445h-0.569
			c-0.417,0-0.774,0.148-1.071,0.445c-0.298,0.298-0.445,0.654-0.445,1.072v4.55c0,0.418,0.148,0.775,0.445,1.073
			c0.297,0.296,0.654,0.445,1.071,0.445h0.569c0.418,0,0.775-0.149,1.071-0.445C63.253,80.75,63.402,80.393,63.402,79.975"/>
		<path fill="#FFFFFF" d="M78.761,82.251c0,0.216-0.073,0.395-0.219,0.541c-0.145,0.145-0.326,0.217-0.54,0.217h-1.517
			c-0.215,0-0.395-0.073-0.54-0.217c-0.146-0.146-0.218-0.326-0.218-0.541v-7.585c0-0.214-0.073-0.394-0.218-0.54
			c-0.145-0.145-0.325-0.217-0.54-0.217h-2.086c-0.215,0-0.395,0.072-0.541,0.217c-0.145,0.146-0.218,0.326-0.218,0.54v7.585
			c0,0.216-0.073,0.395-0.218,0.541c-0.145,0.145-0.325,0.217-0.541,0.217h-3.033c-0.216,0-0.395-0.073-0.541-0.217
			c-0.145-0.146-0.218-0.326-0.218-0.541V73.15c0-0.215,0.073-0.395,0.218-0.54c0.146-0.145,0.325-0.218,0.541-0.218h8.912
			c0.417,0,0.774,0.149,1.072,0.446c0.297,0.296,0.445,0.654,0.445,1.071V82.251z"/>
		<path fill="#FFFFFF" d="M91.085,81.493c0,0.417-0.148,0.774-0.445,1.071c-0.298,0.296-0.655,0.445-1.071,0.445h-8.154
			c-0.417,0-0.774-0.149-1.071-0.445c-0.297-0.297-0.445-0.655-0.445-1.071v-0.759c0-0.214,0.073-0.395,0.217-0.54
			c0.146-0.145,0.327-0.219,0.541-0.219h3.033c0.38,0,0.632,0.254,0.759,0.759c0.127,0.506,0.38,0.759,0.759,0.759h2.086
			c0.214,0,0.394-0.073,0.541-0.219c0.143-0.145,0.217-0.326,0.217-0.54v-1.516c0-0.216-0.074-0.395-0.217-0.54
			c-0.147-0.147-0.327-0.219-0.541-0.219h-5.879c-0.417,0-0.774-0.148-1.071-0.445c-0.297-0.297-0.445-0.654-0.445-1.072v-3.033
			c0-0.418,0.149-0.775,0.445-1.071c0.297-0.297,0.654-0.446,1.071-0.446h8.154c0.416,0,0.773,0.149,1.071,0.446
			c0.297,0.296,0.445,0.654,0.445,1.071v0.758c0,0.216-0.073,0.396-0.218,0.541c-0.146,0.145-0.326,0.219-0.54,0.219H88.81
			c-0.379,0-0.632-0.253-0.758-0.759c-0.127-0.505-0.38-0.758-0.758-0.758h-2.086c-0.215,0-0.395,0.072-0.541,0.218
			c-0.146,0.146-0.218,0.326-0.218,0.54v1.517c0,0.215,0.072,0.395,0.218,0.54c0.146,0.145,0.326,0.218,0.541,0.218h4.361
			c0.416,0,0.773,0.149,1.071,0.445c0.297,0.298,0.445,0.655,0.445,1.071V81.493z"/>
		<path fill="#FFFFFF" d="M103.41,81.493c0,0.417-0.149,0.774-0.446,1.071c-0.297,0.296-0.653,0.445-1.07,0.445h-8.912
			c-0.216,0-0.395-0.073-0.541-0.217c-0.144-0.146-0.217-0.326-0.217-0.541V73.15c0-0.215,0.073-0.395,0.217-0.54
			c0.146-0.145,0.326-0.218,0.541-0.218h3.034c0.215,0,0.395,0.073,0.54,0.218c0.145,0.145,0.218,0.326,0.218,0.54v7.584
			c0,0.215,0.073,0.395,0.218,0.54c0.145,0.146,0.325,0.219,0.54,0.219h2.085c0.215,0,0.395-0.073,0.54-0.219
			c0.145-0.145,0.219-0.326,0.219-0.54V73.15c0-0.215,0.073-0.395,0.217-0.54c0.145-0.145,0.326-0.218,0.54-0.218h1.517
			c0.214,0,0.395,0.073,0.54,0.218c0.146,0.145,0.219,0.326,0.219,0.54V81.493z"/>
		<path fill="#FFFFFF" d="M109.098,82.251c0,0.216-0.073,0.395-0.218,0.541c-0.145,0.145-0.326,0.217-0.541,0.217h-3.034
			c-0.216,0-0.395-0.073-0.54-0.217c-0.146-0.146-0.218-0.326-0.218-0.541V70.116c0-0.215,0.073-0.395,0.218-0.541
			c0.145-0.145,0.324-0.218,0.54-0.218h3.034c0.215,0,0.395,0.073,0.541,0.218c0.144,0.146,0.218,0.326,0.218,0.541V82.251z"/>
		<path fill="#FFFFFF" d="M120.664,73.15c0,0.215-0.073,0.395-0.218,0.541c-0.145,0.146-0.326,0.218-0.541,0.218h-2.086
			c-0.214,0-0.394,0.072-0.539,0.217c-0.146,0.146-0.219,0.326-0.219,0.54v7.585c0,0.216-0.073,0.395-0.217,0.541
			c-0.145,0.145-0.326,0.217-0.541,0.217h-3.034c-0.215,0-0.395-0.073-0.541-0.217c-0.145-0.146-0.217-0.326-0.217-0.541v-7.585
			c0-0.214-0.073-0.394-0.219-0.54c-0.144-0.145-0.325-0.217-0.539-0.217h-0.758c-0.216,0-0.396-0.073-0.541-0.218
			c-0.146-0.145-0.219-0.326-0.219-0.541c0-0.215,0.073-0.395,0.219-0.54c0.145-0.145,0.325-0.218,0.541-0.218h0.758
			c0.214,0,0.395-0.072,0.539-0.217c0.146-0.144,0.219-0.323,0.219-0.537v-1.527c0-0.212,0.072-0.392,0.217-0.536
			c0.145-0.144,0.326-0.217,0.541-0.217h3.034c0.215,0,0.395,0.073,0.541,0.218c0.145,0.146,0.217,0.326,0.217,0.541v1.516
			c0,0.216,0.074,0.396,0.219,0.542c0.145,0.145,0.324,0.217,0.539,0.217h2.086c0.216,0,0.396,0.073,0.541,0.218
			C120.591,72.755,120.664,72.935,120.664,73.15"/>
		<path fill="#FFFFFF" d="M126.352,70.875c0,0.215-0.073,0.395-0.219,0.54c-0.144,0.145-0.325,0.218-0.54,0.218h-3.034
			c-0.216,0-0.395-0.072-0.54-0.218c-0.146-0.145-0.218-0.325-0.218-0.54v-0.758c0-0.215,0.073-0.395,0.218-0.541
			c0.145-0.145,0.324-0.218,0.54-0.218h3.034c0.214,0,0.395,0.073,0.54,0.218c0.146,0.146,0.219,0.326,0.219,0.541V70.875z
			 M126.352,82.251c0,0.216-0.073,0.395-0.219,0.541c-0.144,0.145-0.325,0.217-0.54,0.217h-3.034c-0.216,0-0.395-0.073-0.54-0.217
			c-0.146-0.146-0.218-0.326-0.218-0.541V73.15c0-0.215,0.073-0.395,0.218-0.54c0.145-0.145,0.324-0.218,0.54-0.218h3.034
			c0.214,0,0.395,0.073,0.54,0.218c0.146,0.145,0.219,0.326,0.219,0.54V82.251z"/>
		<path fill="#FFFFFF" d="M138.676,82.251c0,0.216-0.072,0.395-0.218,0.541c-0.145,0.145-0.326,0.217-0.54,0.217h-1.517
			c-0.215,0-0.396-0.073-0.541-0.217c-0.145-0.146-0.218-0.326-0.218-0.541v-7.585c0-0.214-0.073-0.394-0.218-0.54
			c-0.145-0.145-0.326-0.217-0.541-0.217h-2.085c-0.215,0-0.395,0.072-0.541,0.217c-0.144,0.146-0.217,0.326-0.217,0.54v7.585
			c0,0.216-0.074,0.395-0.219,0.541c-0.145,0.145-0.325,0.217-0.54,0.217h-3.034c-0.216,0-0.395-0.073-0.54-0.217
			c-0.145-0.146-0.218-0.326-0.218-0.541V73.15c0-0.215,0.073-0.395,0.218-0.54c0.145-0.145,0.325-0.218,0.54-0.218h8.912
			c0.417,0,0.773,0.149,1.071,0.446c0.297,0.296,0.445,0.654,0.445,1.071V82.251z"/>
		<path fill="#FFFFFF" d="M151.001,85.285c0,0.215-0.073,0.395-0.218,0.54c-0.145,0.145-0.326,0.218-0.541,0.218h-3.792
			c-0.215,0-0.395-0.073-0.541-0.218c-0.145-0.146-0.217-0.325-0.217-0.54c0-0.215,0.072-0.396,0.217-0.54
			c0.146-0.145,0.326-0.218,0.541-0.218h0.758c0.215,0,0.396-0.074,0.54-0.218c0.146-0.145,0.218-0.326,0.218-0.541
			c0-0.214-0.073-0.395-0.218-0.541c-0.144-0.145-0.325-0.218-0.54-0.218h-6.637c-0.214,0-0.395-0.073-0.54-0.217
			c-0.146-0.146-0.218-0.326-0.218-0.541V73.15c0-0.215,0.073-0.395,0.218-0.54c0.145-0.145,0.326-0.218,0.54-0.218h9.671
			c0.215,0,0.395,0.073,0.541,0.218c0.145,0.145,0.218,0.326,0.218,0.54V85.285z M147.967,80.734v-6.068
			c0-0.214-0.073-0.394-0.218-0.54c-0.144-0.146-0.325-0.218-0.54-0.218h-2.086c-0.215,0-0.394,0.072-0.54,0.218
			c-0.145,0.146-0.218,0.326-0.218,0.54v6.068c0,0.215,0.073,0.395,0.218,0.54c0.146,0.146,0.325,0.219,0.54,0.219h2.086
			c0.215,0,0.396-0.073,0.54-0.219C147.894,81.129,147.967,80.949,147.967,80.734"/>
		<path fill="#FFFFFF" d="M34.307,47.581c0,0.506-0.173,0.93-0.514,1.272c-0.343,0.343-0.767,0.513-1.274,0.513h-3.572
			c-0.506,0-0.93-0.17-1.272-0.513c-0.344-0.342-0.514-0.766-0.514-1.272v-1.787c0-0.505-0.17-0.929-0.512-1.272
			c-0.343-0.342-0.768-0.513-1.274-0.513h-4.912c-0.508,0-0.931,0.171-1.274,0.513c-0.342,0.342-0.512,0.767-0.512,1.272v7.147
			c0,0.505,0.171,0.93,0.512,1.273c0.342,0.342,0.765,0.512,1.274,0.512h4.912c0.506,0,0.93,0.172,1.274,0.514
			c0.342,0.343,0.512,0.766,0.512,1.274c0,0.507-0.17,0.93-0.512,1.272c-0.343,0.343-0.768,0.513-1.274,0.513h-4.912
			c-0.508,0-0.931,0.171-1.274,0.514c-0.342,0.344-0.512,0.767-0.512,1.273v10.718c0,0.506-0.172,0.93-0.514,1.273
			c-0.342,0.343-0.767,0.514-1.274,0.514H9.743c-0.507,0-0.93-0.171-1.272-0.514c-0.343-0.343-0.514-0.767-0.514-1.273V42.222
			c0-0.506,0.171-0.929,0.514-1.273c0.342-0.341,0.765-0.514,1.272-0.514h20.989c0.984,0,1.826,0.35,2.524,1.05
			c0.7,0.701,1.052,1.541,1.052,2.524V47.581z"/>
		<path fill="#FFFFFF" d="M63.334,45.794c0,0.507-0.172,0.931-0.513,1.274c-0.342,0.342-0.767,0.513-1.274,0.513h-3.572
			c-0.893,0-1.489-0.595-1.786-1.787c-0.298-1.19-0.894-1.786-1.786-1.786h-4.914c-0.505,0-0.93,0.172-1.271,0.514
			c-0.343,0.342-0.514,0.767-0.514,1.272v17.864c0,0.506-0.172,0.931-0.514,1.273c-0.341,0.342-0.767,0.513-1.273,0.513h-7.145
			c-0.507,0-0.932-0.171-1.274-0.513c-0.341-0.342-0.514-0.767-0.514-1.273V42.222c0-0.507,0.173-0.93,0.514-1.273
			c0.342-0.341,0.766-0.514,1.274-0.514h20.989c0.982,0,1.824,0.35,2.524,1.05c0.698,0.701,1.049,1.541,1.049,2.524V45.794z"/>
		<path fill="#FFFFFF" d="M92.362,61.871c0,0.983-0.35,1.825-1.049,2.524c-0.7,0.7-1.541,1.049-2.524,1.049h-20.99
			c-0.506,0-0.93-0.171-1.273-0.513c-0.341-0.342-0.513-0.767-0.513-1.273V42.222c0-0.506,0.172-0.929,0.513-1.273
			c0.343-0.341,0.767-0.514,1.273-0.514h20.99c0.983,0,1.824,0.35,2.524,1.05c0.699,0.701,1.049,1.541,1.049,2.524v5.358
			c0,0.983-0.35,1.825-1.049,2.524c-0.7,0.701-1.541,1.05-2.524,1.05h-10.27c-0.508,0-0.931,0.171-1.274,0.514
			c-0.342,0.343-0.513,0.767-0.513,1.272v5.36c0,0.506,0.171,0.93,0.513,1.271c0.343,0.343,0.766,0.514,1.274,0.514h4.912
			c0.506,0,0.929-0.171,1.273-0.514c0.341-0.341,0.513-0.766,0.513-1.271v-1.787c0-0.506,0.17-0.93,0.512-1.272
			c0.345-0.341,0.767-0.513,1.274-0.513h3.574c0.505,0,0.929,0.172,1.272,0.513c0.342,0.342,0.513,0.767,0.513,1.272V61.871z
			 M85.217,47.581v-1.787c0-0.505-0.171-0.929-0.513-1.272c-0.344-0.342-0.767-0.513-1.273-0.513h-4.912
			c-0.508,0-0.931,0.171-1.274,0.513c-0.342,0.342-0.513,0.767-0.513,1.272v1.787c0,0.506,0.171,0.93,0.513,1.272
			c0.343,0.343,0.766,0.513,1.274,0.513h4.912c0.506,0,0.929-0.17,1.273-0.513C85.046,48.511,85.217,48.087,85.217,47.581"/>
		<path fill="#FFFFFF" d="M121.392,61.872c0,0.983-0.351,1.825-1.05,2.524c-0.701,0.699-1.541,1.048-2.522,1.048H98.615
			c-0.983,0-1.825-0.349-2.524-1.048c-0.699-0.699-1.05-1.541-1.05-2.524v-1.786c0-0.506,0.172-0.929,0.514-1.273
			c0.343-0.342,0.766-0.514,1.272-0.514h7.146c0.894,0,1.487,0.596,1.786,1.787c0.298,1.19,0.893,1.786,1.787,1.786h4.912
			c0.506,0,0.93-0.171,1.274-0.514c0.341-0.341,0.514-0.765,0.514-1.271v-3.572c0-0.508-0.173-0.931-0.514-1.274
			c-0.344-0.342-0.767-0.514-1.274-0.514H98.615c-0.983,0-1.825-0.349-2.524-1.05c-0.699-0.699-1.05-1.539-1.05-2.522v-7.146
			c0-0.983,0.351-1.824,1.05-2.524c0.699-0.699,1.541-1.05,2.524-1.05h19.204c0.982,0,1.821,0.35,2.522,1.05
			c0.699,0.701,1.05,1.541,1.05,2.524v1.786c0,0.507-0.172,0.931-0.514,1.274c-0.342,0.342-0.768,0.513-1.272,0.513h-3.574
			c-0.893,0-1.489-0.595-1.784-1.787c-0.299-1.19-0.895-1.786-1.788-1.786h-4.912c-0.506,0-0.931,0.172-1.273,0.514
			c-0.344,0.342-0.514,0.767-0.514,1.272v3.572c0,0.508,0.17,0.933,0.514,1.274c0.342,0.344,0.767,0.514,1.273,0.514h10.272
			c0.982,0,1.821,0.35,2.522,1.049c0.699,0.701,1.05,1.54,1.05,2.523V61.872z"/>
		<path fill="#FFFFFF" d="M149.905,40.949c-0.341-0.341-0.767-0.514-1.271-0.514h-12.06c-0.506,0-0.93-0.17-1.272-0.513
			c-0.339-0.339-0.508-0.759-0.511-1.259V25.88c0-0.506-0.172-0.93-0.514-1.273c-0.342-0.342-0.768-0.514-1.273-0.514h-7.145
			c-0.507,0-0.931,0.172-1.273,0.514c-0.343,0.342-0.512,0.767-0.512,1.273v9.181c0,0.006-0.002,0.01-0.002,0.015v28.582
			c0,0.506,0.171,0.931,0.512,1.273c0.343,0.342,0.766,0.513,1.272,0.513h7.148c0.505,0,0.929-0.171,1.271-0.513
			c0.343-0.342,0.515-0.767,0.515-1.273v-9.183c0-0.005,0.002-0.009,0.002-0.013V45.78c0.003-0.499,0.172-0.92,0.511-1.258
			c0.342-0.342,0.766-0.514,1.272-0.514h4.913c0.506,0,0.929,0.172,1.273,0.514c0.341,0.342,0.514,0.767,0.514,1.272v17.864
			c0,0.506,0.17,0.931,0.512,1.273c0.343,0.342,0.766,0.513,1.272,0.513h3.575c0.504,0,0.93-0.171,1.271-0.513
			c0.343-0.342,0.514-0.767,0.514-1.273V42.222C150.42,41.716,150.249,41.292,149.905,40.949"/>
		<g>
			<g>
				<g>
					<defs>
						<path id="SVGID_1_" d="M145.529,10.87c-4.127,3.883-7.751,12.759-6.135,26.919L172.762,4.77
							C158.694,3.13,149.507,7.128,145.529,10.87z M139.476,38.564c0.159,0.013,0.312,0.019,0.471,0.03l-0.523-0.529
							C139.443,38.234,139.454,38.394,139.476,38.564z M173.566,5.486l-33.468,33.118c12.801,0.919,22.391-1.352,27.857-6.903
							C173.728,25.854,174.742,11.447,173.566,5.486z"/>
					</defs>
					<clipPath id="SVGID_2_">
						<use xlink:href="#SVGID_1_"  overflow="visible"/>
					</clipPath>
					<g clip-path="url(#SVGID_2_)">
						<path id="Creative_Pattern_2_" fill="#FFFFFF" d="M163.274,32.823c-0.769-0.34-1.226-0.807-1.291-1.326
							c-0.036-0.287,0.053-0.57,0.258-0.824c-0.01-0.028-0.017-0.061-0.017-0.094c0-0.17,0.14-0.309,0.31-0.309
							c0.163,0,0.298,0.142,0.298,0.309c0,0.168-0.136,0.309-0.298,0.309c-0.018,0-0.037-0.002-0.055-0.004
							c-0.123,0.157-0.209,0.35-0.181,0.574c0.053,0.418,0.495,0.826,1.217,1.121c0.51,0.107,1.053-0.076,1.629-0.269
							c0.425-0.143,0.862-0.29,1.296-0.313c0.049-0.105,0.155-0.18,0.275-0.18c0.17,0,0.309,0.138,0.309,0.308
							c0,0.175-0.136,0.311-0.309,0.311c-0.102,0-0.189-0.049-0.245-0.125c-0.39,0.017-0.798,0.155-1.225,0.298
							c-0.465,0.156-0.941,0.317-1.414,0.317c-0.08,0-0.162-0.007-0.241-0.017c-0.067,1.122-0.415,1.899-1.037,2.319
							c-0.007,0.162-0.142,0.298-0.304,0.298c-0.17,0-0.309-0.14-0.309-0.309c0-0.176,0.135-0.311,0.309-0.311
							c0.055,0,0.106,0.015,0.149,0.04C162.93,34.571,163.224,33.858,163.274,32.823z M167.592,24.885
							c0.225-0.164,0.464-0.459,0.458-0.965c0.099-0.05,0.168-0.153,0.168-0.27c0-0.168-0.139-0.308-0.304-0.308
							c-0.171,0-0.31,0.138-0.31,0.308c0,0.099,0.05,0.187,0.127,0.244c0.012,0.321-0.095,0.565-0.327,0.734
							c-0.812,0.59-2.935,0.148-4.365-0.622c-0.324-0.303-0.704-0.516-1.106-0.589l-0.009-0.001
							c-1.004-0.12-2.126-0.317-2.743-1.135c-0.393-0.52-0.524-1.25-0.393-2.166l-0.357,0.355c-0.054,0.821,0.111,1.492,0.496,2.003
							c0.748,0.991,2.181,1.166,2.953,1.26c0.343,0.063,0.67,0.25,0.952,0.517l-0.002,0.004c0.004,0.003,0.01,0.005,0.014,0.007
							c0.604,0.582,1.003,1.529,0.927,2.425c-0.07,0.813-0.657,2.673-4.547,2.825c-0.03-0.14-0.15-0.237-0.303-0.237
							c-0.168,0-0.298,0.134-0.298,0.303c0,0.171,0.134,0.31,0.298,0.31c0.067,0,0.126-0.02,0.177-0.054
							c4.267-0.12,4.912-2.212,4.989-3.121c0.064-0.746-0.16-1.511-0.557-2.117c0.889,0.379,1.895,0.627,2.733,0.627
							C166.802,25.221,167.269,25.118,167.592,24.885z M167.481,11.981c0.807,0.884,1.643,1.798,1.717,2.491l0.001,0.009
							c0.191,1.129-0.292,2.259-1.23,2.878c-0.682,0.451-1.446,0.52-2.142,0.209c-0.007-0.164-0.14-0.291-0.308-0.291
							c-0.168,0-0.305,0.137-0.305,0.303c0,0.175,0.135,0.311,0.305,0.311c0.058,0,0.111-0.018,0.157-0.043
							c0.33,0.148,0.678,0.225,1.026,0.225c0.493,0,0.99-0.149,1.443-0.449c0.768-0.508,1.261-1.323,1.383-2.218
							c0.81,1.431,1.628,1.386,2.422,1.339c0.762-0.045,1.549-0.088,2.461,1.25c-0.017,0.039-0.026,0.081-0.026,0.122
							c0,0.169,0.139,0.312,0.305,0.312c0.171,0,0.311-0.14,0.311-0.312c0-0.17-0.14-0.309-0.311-0.309
							c-0.008,0-0.014,0.002-0.023,0.003c-1.011-1.484-1.924-1.431-2.736-1.384c-0.844,0.049-1.576,0.091-2.383-1.683
							c-0.008-0.104-0.017-0.209-0.035-0.313c-0.088-0.796-0.919-1.705-1.798-2.667c-0.089-0.097-0.177-0.193-0.265-0.291
							l-0.225,0.225C167.31,11.794,167.395,11.887,167.481,11.981z M145.794,36.966c1.762,0.523,1.861,3.116,1.862,3.142
							l0.317-0.009c-0.001-0.03-0.112-3.009-2.257-3.482c-0.217-0.947-0.397-1.937,0.844-3.318c0.022,0.006,0.044,0.01,0.068,0.01
							c0.172,0,0.312-0.14,0.312-0.312c0-0.164-0.143-0.302-0.312-0.302c-0.164,0-0.309,0.142-0.309,0.302
							c0,0.028,0.005,0.056,0.012,0.083c-1.057,1.176-1.159,2.143-1.05,2.957c-0.172,0.739-0.789,1.146-1.279,1.358
							c-0.875,0.377-2.011,0.411-2.627,0.088l-0.16,0.159l-0.052,0.088c0.327,0.192,0.798,0.288,1.308,0.288
							c0.551,0,1.148-0.113,1.658-0.333c0.434-0.186,0.956-0.514,1.261-1.062c0.012,0.052,0.024,0.104,0.036,0.155
							c0.268,1.159,0.48,2.077-2.201,3.359l0.008,0.019c0.212,0.005,0.422,0.009,0.632,0.013
							C146.056,38.99,146.017,37.994,145.794,36.966z M160.887,32.927c0.054,0.089,0.151,0.151,0.26,0.151
							c0.171,0,0.31-0.136,0.31-0.303c0-0.171-0.138-0.31-0.31-0.31c-0.101,0-0.192,0.052-0.248,0.133
							c-0.295-0.089-0.581-0.158-0.86-0.225c-1.252-0.298-2.334-0.557-3.371-2.547c-0.242-0.476-0.576-0.826-0.972-1.079
							c1.018-0.193,2.002-1.029,2.369-1.529c1.129-1.527,2.725-1.12,3.531-0.632c0.035,0.134,0.153,0.232,0.299,0.232
							c0.171,0,0.311-0.14,0.311-0.309c0-0.168-0.14-0.305-0.311-0.305c-0.078,0-0.147,0.028-0.201,0.071
							c-0.92-0.525-2.649-0.916-3.885,0.754c-0.469,0.642-1.692,1.522-2.675,1.431c-1.523-0.585-3.605-0.152-4.987,0.272
							l-0.499,0.498c0.85-0.297,2.234-0.702,3.559-0.738c-0.356,0.389-0.494,0.844-0.362,1.245c0.135,0.411,0.532,0.693,1.115,0.806
							c0.044,0.116,0.158,0.201,0.289,0.201c0.166,0,0.304-0.139,0.304-0.303c0-0.168-0.139-0.311-0.304-0.311
							c-0.09,0-0.171,0.04-0.228,0.102c-0.465-0.09-0.776-0.298-0.873-0.593c-0.115-0.351,0.084-0.794,0.508-1.13l-0.011-0.015
							c1.156,0.047,2.21,0.427,2.743,1.475c0.045,0.087,0.09,0.17,0.136,0.25l-0.018-0.007c-0.485,1.191-1.198,1.675-1.711,1.873
							c-0.486,0.185-0.999,0.188-1.376,0.009c-0.771-0.495-1.798-0.489-2.894,0.015c-1.47,0.679-2.734,2.112-3.11,3.467
							c-0.138,0.029-0.249,0.156-0.249,0.298c0,0.167,0.142,0.309,0.31,0.309c0.171,0,0.31-0.139,0.31-0.309
							c0-0.074-0.027-0.139-0.071-0.193c0.341-1.276,1.542-2.637,2.942-3.284c0.999-0.459,1.92-0.471,2.597-0.031l0.018,0.01
							c0.455,0.222,1.067,0.224,1.637,0.004c0.54-0.206,1.278-0.696,1.803-1.845c0.487,0.772,0.99,1.233,1.51,1.535h-0.001
							c1.019,0.923,1.45,1.879,1.282,2.84c-0.109,0.619-0.441,1.161-0.807,1.629c-0.025-0.008-0.052-0.011-0.081-0.011
							c-0.173,0-0.303,0.133-0.303,0.311c0,0.174,0.134,0.309,0.303,0.309c0.171,0,0.304-0.135,0.304-0.309
							c0-0.02-0.003-0.039-0.005-0.058c0.697-0.867,1.667-2.48,0.085-4.364c0.317,0.108,0.64,0.187,0.969,0.264
							C160.263,32.754,160.572,32.83,160.887,32.927z M171.334,14.748c-0.083,0.053-0.136,0.149-0.136,0.258
							c0,0.17,0.136,0.304,0.31,0.304c0.17,0,0.304-0.134,0.304-0.304c0-0.12-0.06-0.218-0.151-0.269
							c0.112-0.537,0.17-0.989,0.104-1.444c0.144,0.023,0.288,0.036,0.434,0.036c0.751,0,1.496-0.315,2.078-0.902
							c0.809-0.813,1.138-1.975,0.896-3.138c0.063-0.057,0.106-0.141,0.106-0.228c0-0.168-0.139-0.311-0.305-0.311
							c-0.171,0-0.31,0.14-0.31,0.311c0,0.127,0.082,0.24,0.196,0.286c0.224,1.059-0.073,2.118-0.808,2.858
							c-0.654,0.658-1.532,0.935-2.36,0.752c-0.235-0.834-0.932-1.742-2.496-3.224l-0.225,0.225
							C171.538,12.387,171.678,13.15,171.334,14.748z M151.996,34.192c0.056,0.074,0.144,0.124,0.243,0.124
							c0.168,0,0.309-0.139,0.309-0.304c0-0.17-0.138-0.311-0.309-0.311c-0.101,0-0.191,0.054-0.247,0.134
							c-1.827,0.952-2.612,2.269-2.101,3.535c0.43,1.064,1.767,1.911,3.357,1.911c0.348,0,0.708-0.041,1.073-0.128
							c0.05,0.032,0.11,0.052,0.173,0.052c0.171,0,0.31-0.14,0.31-0.31c0-0.165-0.142-0.305-0.31-0.305
							c-0.154,0-0.286,0.119-0.306,0.267c-1.829,0.407-3.545-0.474-4.003-1.606C149.748,36.166,150.408,35.062,151.996,34.192z
							 M172.573,8.371c0.285,0,0.561-0.097,0.85-0.255c-0.216,0.414-0.339,0.816-0.406,1.088c-0.134,0.034-0.234,0.155-0.234,0.3
							c0,0.167,0.142,0.311,0.311,0.311c0.161,0,0.303-0.146,0.303-0.311c0-0.08-0.031-0.151-0.081-0.209
							c0.162-0.698,0.734-2.404,2.499-2.553l-0.027-0.315c-0.919,0.077-1.548,0.536-1.976,1.08L173.806,7.5
							c-0.954,0.655-1.444,0.841-2.328-0.042l-0.225,0.224C171.753,8.18,172.173,8.371,172.573,8.371z M154.346,25.377
							c-0.004,0.158,0.12,0.299,0.279,0.31c0.009,0.001,0.017,0.001,0.024,0.001c0.161,0,0.296-0.123,0.309-0.281
							c0.006-0.082-0.02-0.162-0.074-0.226c-0.054-0.062-0.129-0.101-0.212-0.107c-0.056-0.004-0.107,0.009-0.155,0.032
							c-0.17-0.078-0.385-0.194-0.475-0.257l-0.075,0.073l-0.152,0.15C153.924,25.161,154.153,25.286,154.346,25.377z
							 M157.232,23.291c0.008,0.255-0.09,0.493-0.29,0.704c-0.429,0.453-0.647,0.927-0.631,1.371
							c0.01,0.313,0.141,0.605,0.376,0.851c-0.015,0.038-0.023,0.077-0.023,0.12c0,0.168,0.134,0.304,0.298,0.304
							c0.171,0,0.31-0.135,0.31-0.304c0-0.172-0.138-0.311-0.31-0.311c-0.006,0-0.012,0.001-0.017,0.002
							c-0.201-0.199-0.309-0.424-0.318-0.672c-0.012-0.36,0.176-0.753,0.545-1.142c0.26-0.275,0.388-0.589,0.377-0.933
							c-0.019-0.628-0.488-1.154-0.632-1.3l-0.113,0.112l-0.112,0.112C156.812,22.328,157.219,22.783,157.232,23.291z
							 M163.053,18.526c-0.058,0.574-0.113,1.12,0.19,1.515c-0.428,0.059-0.803,0.26-1.118,0.603
							c-0.021-0.004-0.042-0.007-0.063-0.007c-0.168,0-0.304,0.137-0.304,0.306c0,0.173,0.133,0.31,0.304,0.31
							c0.174,0,0.31-0.137,0.31-0.31c0-0.03-0.005-0.056-0.013-0.084c0.268-0.293,0.578-0.461,0.94-0.507
							c0.815-0.101,1.897,0.421,3.214,1.55c0.039,0.125,0.147,0.212,0.283,0.212c0.173,0,0.304-0.134,0.304-0.31
							c0-0.172-0.133-0.305-0.304-0.305c-0.072,0-0.137,0.024-0.188,0.066c-1.167-0.981-2.142-1.489-2.962-1.538l0.015-0.023
							c-0.392-0.273-0.367-0.726-0.293-1.446c0.077-0.755,0.17-1.676-0.512-2.501l-0.225,0.224
							C163.208,16.999,163.126,17.807,163.053,18.526z M155.617,36.408l0.002-0.014c0.095-0.787,0.757-1.408,1.33-1.596
							c0.12-0.038,0.305-0.08,0.477-0.043c0.032,0.134,0.158,0.237,0.301,0.237c0.162,0,0.299-0.139,0.299-0.303
							c0-0.169-0.137-0.31-0.299-0.31c-0.076,0-0.146,0.028-0.201,0.076c-0.198-0.051-0.429-0.039-0.675,0.041
							c-0.665,0.217-1.431,0.938-1.546,1.851c-0.115,0.505-0.63,0.902-1.226,0.945c-0.56,0.039-1.032-0.238-1.301-0.749
							c0.022-0.042,0.035-0.089,0.035-0.139c0-0.165-0.142-0.304-0.311-0.304c-0.168,0-0.31,0.139-0.31,0.304
							c0,0.17,0.139,0.311,0.31,0.311c0.002,0,0.003-0.001,0.006-0.001c0.308,0.574,0.833,0.899,1.46,0.899
							c0.044,0,0.089-0.001,0.134-0.004C154.85,37.554,155.471,37.06,155.617,36.408z M169.189,30.312
							c0.698-0.358,1.268-1.075,1.551-1.941c0.084-0.056,0.138-0.151,0.138-0.261c0-0.17-0.133-0.309-0.297-0.309
							c-0.174,0-0.31,0.136-0.31,0.309c0,0.108,0.053,0.202,0.135,0.258c-0.268,0.744-0.763,1.354-1.363,1.662
							c-0.353,0.181-0.71,0.238-1.02,0.163c-0.114-0.173-0.252-0.33-0.412-0.458c-0.345-0.275-1.065-0.64-2.156-0.171
							c-0.056-0.069-0.142-0.113-0.237-0.113c-0.162,0-0.298,0.143-0.298,0.31c0,0.165,0.136,0.304,0.298,0.304
							c0.119,0,0.224-0.071,0.276-0.171c0.741-0.342,1.417-0.312,1.92,0.089c0.152,0.121,0.279,0.273,0.383,0.445l-0.01,0.025
							c0.01,0.004,0.02,0.007,0.029,0.011c0.281,0.489,0.361,1.138,0.189,1.77c-0.149,0.548-0.71,1.819-2.728,2.223
							c-0.055-0.087-0.15-0.145-0.263-0.145c-0.171,0-0.304,0.135-0.304,0.31c0,0.167,0.138,0.311,0.304,0.311
							c0.113,0,0.21-0.062,0.265-0.151c2.241-0.425,2.867-1.851,3.033-2.463c0.168-0.619,0.121-1.253-0.103-1.78
							c0.03,0.002,0.06,0.004,0.091,0.004C168.588,30.542,168.892,30.466,169.189,30.312z M165.949,15.268
							c0.424,0,0.752-0.208,1.029-0.383c0,0,0.001,0,0.001-0.001c0.041,0.02,0.086,0.032,0.133,0.032
							c0.084,0,0.163-0.032,0.222-0.094c0.056-0.056,0.087-0.133,0.086-0.213c-0.001-0.083-0.033-0.16-0.09-0.215
							c-0.059-0.058-0.137-0.089-0.219-0.089c-0.083,0-0.16,0.03-0.216,0.089c-0.061,0.062-0.09,0.143-0.088,0.225v0.001
							c-0.501,0.315-1.068,0.674-2.152-0.356l-0.225,0.225C165.05,15.076,165.544,15.268,165.949,15.268z M165.715,27.536
							c0.06,0,0.115-0.018,0.161-0.048c0.402,0.12,0.815,0.181,1.227,0.181c0.864,0,1.722-0.262,2.452-0.774
							c1.303-0.91,2.059-2.491,2.104-4.364c0.136,0.177,0.301,0.34,0.473,0.466c0.32,0.235,0.649,0.354,0.962,0.354
							c0.111,0,0.222-0.016,0.328-0.046c0.052,0.037,0.114,0.058,0.182,0.058c0.016,0,0.033-0.001,0.05-0.004
							c0.169-0.026,0.285-0.18,0.26-0.342c-0.024-0.152-0.152-0.263-0.304-0.263c-0.017,0-0.034,0.001-0.05,0.003
							c-0.081,0.014-0.153,0.057-0.203,0.123c-0.028,0.037-0.045,0.081-0.053,0.128c-0.395,0.095-0.768-0.108-0.983-0.267
							c-0.481-0.354-0.759-0.896-0.675-1.125l-0.019-0.006c0.025-0.598,0.236-1.056,0.663-1.468l-0.016-0.016
							c0.156-0.016,0.275-0.141,0.275-0.301c0-0.174-0.136-0.31-0.309-0.31c-0.172,0-0.305,0.135-0.305,0.31
							c0,0.063,0.02,0.123,0.053,0.171c-0.571,0.594-0.771,1.299-0.642,2.267c0.024,1.887-0.693,3.479-1.972,4.372
							c-0.984,0.688-2.216,0.889-3.357,0.562c-0.015-0.155-0.146-0.281-0.301-0.281c-0.174,0-0.309,0.134-0.309,0.31
							C165.405,27.4,165.541,27.536,165.715,27.536z M170.403,18.672c0.044,0.024,0.094,0.039,0.148,0.039
							c0.165,0,0.304-0.14,0.304-0.309c0-0.169-0.139-0.311-0.304-0.311c-0.163,0-0.295,0.127-0.308,0.288
							c-0.704,0.148-1.283,0.703-1.572,1.524c-0.299,0.851-0.2,1.748,0.237,2.324c-0.03,0.047-0.048,0.101-0.048,0.162
							c0,0.176,0.136,0.311,0.309,0.311c0.165,0,0.305-0.141,0.305-0.311c0-0.153-0.117-0.275-0.267-0.295
							c-0.415-0.484-0.511-1.302-0.236-2.086C169.235,19.257,169.767,18.763,170.403,18.672z"/>
						<path id="Tech_Pattern_2_" fill="#FFFFFF" d="M160.191,11.727l-3.156-3.045V4.455h3.29V3.56h0.317v1.214h-3.29v3.774
							l3.06,2.951l0.003-0.003c0.041-0.042,0.101-0.042,0.137,0l0.215,0.216c0.043,0.041,0.043,0.094,0,0.137l-0.21,0.208
							c-0.042,0.043-0.095,0.043-0.137,0l-0.216-0.214C160.171,11.812,160.167,11.765,160.191,11.727z M159.407,12.641l0.215,0.216
							c0.042,0.041,0.096,0.041,0.137,0l0.21-0.21c0.042-0.041,0.042-0.095,0-0.137l-0.216-0.215c-0.035-0.042-0.096-0.042-0.137,0
							h-0.001L157.2,9.887l-0.887-0.898l0.003-4.603h-0.318l-0.004,4.733l0.979,0.992l2.42,2.412
							C159.368,12.562,159.371,12.611,159.407,12.641z M161.685,3.366v1.408h2.625v1.47h-5.238v1.545l2.569,2.57
							c-0.031,0.04-0.029,0.091,0.009,0.124l0.215,0.218c0.042,0.039,0.095,0.039,0.138,0l0.209-0.211
							c0.041-0.043,0.041-0.096,0-0.138l-0.215-0.216c-0.034-0.039-0.09-0.04-0.132-0.004l-2.475-2.476V6.563h5.238V4.455h-2.624
							V3.366H161.685z M160.806,7.599h2.47V7.282h-3.231l2.622,2.652l0.014-0.015l0.01,0.009l4.224-4.201
							c0.039,0.032,0.089,0.03,0.128-0.008l0.209-0.209c0.043-0.043,0.043-0.095,0-0.138l-0.214-0.213
							c-0.036-0.043-0.096-0.043-0.139,0l-0.208,0.207c-0.041,0.043-0.041,0.101-0.001,0.136l-4.01,3.989L160.806,7.599z
							 M157.967,8.206l1.137,1.137h-0.001l0.033,0.032l0.072,0.072l0.001-0.001l1.661,1.597c-0.031,0.043-0.03,0.094,0.008,0.126
							l0.216,0.216c0.041,0.041,0.096,0.041,0.137,0l0.209-0.21c0.043-0.042,0.043-0.094,0-0.138l-0.215-0.215
							c-0.034-0.04-0.09-0.04-0.131-0.003l-1.737-1.673l-1.074-1.072V5.622h4.671c0.011,0.046,0.047,0.076,0.091,0.076h0.306
							c0.047,0,0.096-0.042,0.096-0.102V5.292c0-0.05-0.048-0.092-0.096-0.092h-0.306c-0.053,0-0.095,0.042-0.095,0.092v0.014
							h-4.984V8.206z M170.39,3.099l-0.003,2.615l-8.923,8.838l0.223,0.226l9.018-8.931l0.004-2.746L170.39,3.099z M139.839,34.037
							v3.517l3.78-3.749l-0.016-4.5l0.318-0.32l1.057,1.059c-0.025,0.04-0.02,0.093,0.007,0.125l0.221,0.214
							c0.035,0.043,0.096,0.043,0.138,0l0.209-0.209c0.036-0.042,0.036-0.101,0-0.137l-0.215-0.215
							c-0.036-0.035-0.099-0.041-0.135-0.002l-1.283-1.282l-0.637,0.637l0.017,4.501l-3.145,3.116v-2.749h0.012
							c0.054,0,0.095-0.042,0.095-0.095v-0.31c0-0.048-0.041-0.096-0.095-0.096h-0.3c-0.052,0-0.095,0.047-0.095,0.096v0.31
							C139.773,33.99,139.8,34.023,139.839,34.037z M142.544,13.333h0.505v0.003c0,0.061,0.042,0.097,0.096,0.097h0.305
							c0.048,0,0.09-0.036,0.09-0.097v-0.304c0-0.047-0.043-0.096-0.09-0.096h-0.305c-0.048,0-0.085,0.04-0.093,0.081h-0.424
							c-0.027,0.043-0.056,0.089-0.084,0.131V13.333z M171.627,6.095l0.012-2.963l-0.319-0.002l-0.01,2.832l-9.26,9.172l0.224,0.225
							L171.627,6.095z M141.002,34.811l1.361-1.362l0.006-4.48l1.523-1.597l1.93,1.935c-0.018,0.037-0.01,0.084,0.014,0.114
							l0.221,0.215c0.036,0.043,0.096,0.043,0.137,0l0.21-0.209c0.035-0.041,0.035-0.102,0-0.138l-0.216-0.216
							c-0.035-0.036-0.1-0.041-0.136,0l-0.008,0.008l-2.158-2.162l-1.835,1.925l-0.006,4.475l-0.726,0.726v-1.457l-3.218,0.002
							v0.316l2.901-0.003V34.811z M141.714,14.752h2.69v-3.071l-0.843,0.012c-0.062,0.08-0.123,0.163-0.185,0.245l0.002,0.076
							l0.708-0.011v2.431h-2.291c-0.027,0.051-0.055,0.101-0.081,0.152V14.752z M166.674,3.001v0.668l2.768,0.003l-0.005,1.804
							l-8.64,8.441l0.222,0.228l8.688-8.488l0.048-0.046l0.007-2.257l-2.769-0.003v-0.35H166.674z M141.147,15.882h5.001v-2.357
							l4.716,0.012v6.744l3.023,2.931l-5.343,5.338l-2.933-2.918v-5.889h1.31v2.677c-0.053,0.002-0.099,0.043-0.099,0.101v0.304
							c0,0.049,0.048,0.089,0.102,0.089h0.305c0.053,0,0.095-0.041,0.095-0.089v-0.304c0-0.056-0.036-0.095-0.086-0.1v-2.994h-1.944
							v6.337l3.117,3.101l0.003-0.002l0.133,0.131l5.793-5.786l-3.159-3.062v-6.871l0,0v-0.059l-5.352-0.01v2.355h-4.606
							c-0.026,0.057-0.052,0.113-0.077,0.169V15.882z M168.804,5.255l0.006-1.137l-2.851-0.002L165.95,3.08l-0.318,0.002l0.012,1.35
							l2.847,0.003l-0.004,0.686l-8.377,8.119l0.221,0.229L168.804,5.255z M146.475,25.386l1.754,1.77
							c0.246,0.244,0.673,0.231,0.953-0.042l1.876-1.891c0.273-0.287,0.294-0.707,0.049-0.96l-1.748-1.76
							c-0.245-0.254-0.679-0.225-0.959,0.048l-1.862,1.883C146.258,24.715,146.23,25.141,146.475,25.386z M157.116,20.548
							l0.921-0.983l-0.076-0.072l-5.432-5.432h-0.681v5.725l2.683,2.608c-0.035,0.042-0.034,0.096,0.005,0.13l0.216,0.216
							c0.042,0.041,0.095,0.041,0.136,0.001l0.002,0.002l0.101-0.105l0.109-0.107c0.003-0.003,0.005-0.008,0.008-0.012l0.004-0.004
							l-0.001-0.001c0.028-0.038,0.025-0.084-0.011-0.121l-0.215-0.215c-0.033-0.039-0.086-0.039-0.127-0.007l-2.59-2.518v-5.272
							h0.232l5.196,5.196l-0.486,0.519l-4.175-4.088v3.388l2.645,2.643l1.011-1.012l-2.15-1.987
							c0.037-0.042,0.036-0.092-0.004-0.134l-0.215-0.215c-0.036-0.039-0.096-0.039-0.138,0l-0.209,0.21
							c-0.042,0.042-0.042,0.102,0,0.138l0.216,0.215c0.037,0.039,0.085,0.04,0.124,0.009l1.918,1.772l-0.553,0.556l-2.327-2.328
							v-2.5L157.116,20.548z M140.717,16.844h6.446V14.52h2.722v6.058l2.636,2.624l-0.495,0.497l-2.833-2.816V15.22h-0.061v-0.004
							h-1.269l-0.003,2.268h-4.616l-0.006,8.712l-2.219,2.213v3.027l-2.914,0.003v0.317l3.232-0.003v-3.212l2.218-2.215l0.006-8.524
							h4.616l0.003-2.268l0.695-0.001v5.482l3.152,3.133l0.946-0.948l-0.225-0.226l-0.003,0.003l-2.543-2.532V14.52h0V14.2h-3.359
							v2.326h-6.051c-0.025,0.061-0.052,0.123-0.077,0.184V16.844z M144.654,26.11v-7.333h3.229v2.736
							c-0.051,0.004-0.094,0.045-0.094,0.101v0.304c0,0.048,0.048,0.091,0.102,0.091h0.305c0.054,0,0.095-0.043,0.095-0.091v-0.304
							c0-0.057-0.039-0.099-0.091-0.101V18.46h-3.863v7.783l3.271,3.201l-2.819,2.778c-0.036-0.039-0.093-0.038-0.135,0.002
							l-0.209,0.21c-0.042,0.042-0.042,0.101,0,0.137l0.214,0.216c0.043,0.041,0.097,0.041,0.138,0l0.209-0.21
							c0.039-0.039,0.04-0.088,0.006-0.128l3.048-3.006L144.654,26.11z M138.876,29.234v0.313c0,0.052,0.041,0.094,0.095,0.094
							h0.299c0.054,0,0.096-0.042,0.096-0.094v-0.313c0-0.047-0.041-0.094-0.096-0.094h-0.005l-0.021-4.123h1.745v0.637
							l-0.851,0.856l-0.006-0.006c-0.03-0.038-0.102-0.043-0.132,0l-0.215,0.201c-0.036,0.042-0.036,0.108,0,0.144L140,27.065
							c0.043,0.036,0.103,0.036,0.138,0l0.215-0.209c0.026-0.037,0.033-0.082,0.01-0.122l0.945-0.948v-1.086h-2.382l0.023,4.445
							C138.906,29.156,138.876,29.194,138.876,29.234z M139.895,23.823h1.471l0.004-6.007l0.78,0.005l0.011,7.998l-2.081,2.028
							v2.342h-1.968v0.318h2.287v-2.525l2.08-2.028l-0.012-8.448l-1.414-0.009l-0.004,6.009h-0.836v-5.213h-0.096
							c-0.075,0.219-0.149,0.441-0.221,0.666V23.823z M160.543,16.59l0.215,0.214c0.042,0.042,0.096,0.042,0.137,0l0.21-0.209
							c0.041-0.042,0.041-0.096,0-0.137l-0.216-0.216c-0.035-0.04-0.091-0.04-0.133-0.003l-4.675-4.761l-1.54-1.539h-0.746V6.894
							h-2.823v3.991l-3.218-0.007l-1.498-1.733l-0.24,0.209l1.592,1.841l3.682,0.008V7.212h2.188v3.042h0.932l1.446,1.447
							l4.677,4.763C160.503,16.505,160.505,16.556,160.543,16.59z M151.718,5.98h3.271l-0.012,3.467l6.275,6.31
							c-0.031,0.04-0.029,0.091,0.009,0.125l0.216,0.214c0.041,0.043,0.095,0.043,0.137,0l0.209-0.208
							c0.043-0.044,0.043-0.097,0-0.139l-0.214-0.216c-0.035-0.039-0.092-0.041-0.133-0.003l-6.18-6.214l0.012-3.653h-3.134
							c-0.153,0.062-0.305,0.125-0.456,0.189V5.98z M160.371,17.171l-0.215-0.215c-0.031-0.036-0.077-0.039-0.118-0.015
							l-5.915-5.999h-1.553V8.689c0.052-0.002,0.092-0.049,0.092-0.097V8.287c0-0.052-0.041-0.094-0.095-0.094h-0.304
							c-0.054,0-0.096,0.042-0.096,0.094v0.305c0,0.045,0.037,0.089,0.086,0.095v2.573h1.738l5.82,5.903l-0.002,0.002
							c-0.042,0.042-0.042,0.103,0,0.138l0.216,0.216c0.04,0.041,0.095,0.041,0.137,0l0.061-0.063l0.164-0.162l-0.003-0.003
							C160.41,17.252,160.408,17.207,160.371,17.171z M158.355,18.788l0.215,0.214c0.041,0.042,0.095,0.042,0.137,0l0.209-0.209
							c0.042-0.042,0.042-0.096,0-0.137l-0.215-0.216c-0.037-0.04-0.096-0.04-0.138,0l-0.008,0.007l-5.283-5.275h-0.937
							c-0.004-0.054-0.044-0.091-0.094-0.091h-0.305c-0.053,0-0.102,0.042-0.102,0.101v0.305c0,0.048,0.048,0.09,0.102,0.09h0.305
							c0.053,0,0.094-0.039,0.095-0.087h0.805l5.195,5.186C158.316,18.714,158.321,18.757,158.355,18.788z M147.274,8.38
							l-0.251,0.196l1.178,1.514l2.074,0.011l-0.002-1.795h-1.109V8.291c0-0.053-0.042-0.096-0.096-0.096h-0.305
							c-0.047,0-0.089,0.042-0.089,0.096v0.306c0,0.053,0.042,0.1,0.089,0.1h0.305c0.045,0,0.079-0.033,0.091-0.073h0.797
							l0.002,1.16l-1.6-0.009L147.274,8.38z M146.746,12.291l6.717-0.004l2.056,2.017l3.567,3.622
							c-0.023,0.037-0.019,0.083,0.016,0.113l0.215,0.216c0.042,0.042,0.096,0.042,0.138,0l0.209-0.208
							c0.042-0.044,0.042-0.097,0-0.138l-0.214-0.215c-0.036-0.042-0.096-0.042-0.138,0l-0.005,0.004l-3.563-3.62l-2.15-2.108
							l-6.699,0.005l-1.648-1.949l-0.243,0.206L146.746,12.291z"/>
					</g>
				</g>
			</g>
			<g>
				<path fill="none" stroke="#FFFFFF" stroke-width="0.1797" stroke-miterlimit="10" d="M147.215,38.268
					c-1.681,0-3.458-0.073-5.282-0.218l-1.702-0.132l-0.216-1.696c-0.767-6.081-0.528-11.53,0.707-16.198
					c1.351-5.102,3.551-7.975,5.158-9.486c1.277-1.203,3.606-2.922,7.438-4.271c3.582-1.261,7.633-1.899,12.04-1.899
					c2.029,0,4.146,0.139,6.289,0.413l1.423,0.198l0.326,1.289c0.748,2.952,0.775,7.751,0.092,12.308
					c-0.86,5.732-2.753,10.326-5.33,12.936c-2.241,2.277-5.21,4.004-8.819,5.132C155.894,37.721,151.815,38.268,147.215,38.268z"/>
			</g>
		</g>
	</g>
</g>
<g id="Full_Color">
</g>
</svg>
