<?xml version="1.0" encoding="utf-8"?>
<!-- Generator: Adobe Illustrator 17.1.0, SVG Export Plug-In . SVG Version: 6.00 Build 0)  -->
<!DOCTYPE svg PUBLIC "-//W3C//DTD SVG 1.1//EN" "http://www.w3.org/Graphics/SVG/1.1/DTD/svg11.dtd">
<svg version="1.1" id="Layer_1" xmlns="http://www.w3.org/2000/svg" xmlns:xlink="http://www.w3.org/1999/xlink" x="0px" y="0px"
	 viewBox="0 0 240 140" enable-background="new 0 0 240 140" xml:space="preserve">
<path fill="#FFFFFF" d="M55.356,107.498v0.525V107.498z"/>
<path fill="#FFFFFF" d="M102.981,107.43v0.633C102.981,107.826,102.989,107.617,102.981,107.43"/>
<path fill="#FFFFFF" d="M102.889,106.928c0.059,0.139,0.086,0.285,0.086,0.445C102.966,107.213,102.944,107.068,102.889,106.928"/>
<path fill="#FFFFFF" d="M55.436,106.992c-0.028,0.111-0.058,0.227-0.073,0.346C55.376,107.219,55.399,107.104,55.436,106.992"/>
<path fill="#FFFFFF" d="M48.58,34.624c-0.581-2.098-1.747-4.231-4.192-4.231c-1.979,0-3.686,1.437-3.686,3.492
	c0,5.941,14.205,2.059,14.205,13.316c0,3.687-2.795,9.2-10.247,9.2c-5.746,0-9.897-2.796-10.829-8.696l6.055-0.892
	c0.544,2.561,1.862,4.463,4.735,4.463c2.368,0,4.348-1.243,4.348-3.842c0-6.057-14.206-2.562-14.206-12.849
	c0-5.436,4.58-9.316,9.819-9.316c5.123,0,8.967,3.299,9.473,8.385L48.58,34.624z"/>
<polygon fill="#FFFFFF" points="78.201,30.858 65.469,30.858 65.469,38.077 76.026,38.077 76.026,43.201 65.469,43.201 
	65.469,50.809 78.938,50.809 78.938,55.935 59.413,55.935 59.413,25.735 78.201,25.735 "/>
<path fill="#FFFFFF" d="M106.5,55.935h-6.171l-1.979-7.569h-8.93l-1.98,7.569h-6.169l8.461-30.2h8.151L106.5,55.935z M93.963,30.935
	h-0.156L90.626,43.59h6.519L93.963,30.935z"/>
<polygon fill="#FFFFFF" points="126.891,30.858 119.049,30.858 119.049,55.935 112.993,55.935 112.993,30.858 105.151,30.858 
	105.151,25.735 126.891,25.735 "/>
<polygon fill="#FFFFFF" points="152.138,30.858 144.298,30.858 144.298,55.935 138.242,55.935 138.242,30.858 130.4,30.858 
	130.4,25.735 152.138,25.735 "/>
<polygon fill="#FFFFFF" points="161.536,50.809 174.113,50.809 174.113,55.935 155.479,55.935 155.479,25.735 161.536,25.735 "/>
<polygon fill="#FFFFFF" points="196.862,30.858 184.129,30.858 184.129,38.077 194.686,38.077 194.686,43.201 184.129,43.201 
	184.129,50.809 197.597,50.809 197.597,55.935 178.074,55.935 178.074,25.735 196.862,25.735 "/>
<rect x="33.831" y="60.896" fill="#FFFFFF" width="8.156" height="53.813"/>
<path fill="#FFFFFF" d="M116.196,60.897h18.818c7.106,0,12.926,3.174,16.399,9.067c2.652,4.539,2.871,6.577,2.871,17.838
	c0,12.09-0.605,14.211-3.02,17.994c-3.166,4.988-8.77,8.912-16.782,8.912h-18.287V60.897z M124.361,107.002h9.746
	c4.603,0,7.857-1.588,9.975-4.684c1.818-2.725,2.047-4.238,2.047-14.205c0-9.682-0.229-12.025-2.423-14.975
	c-2.498-3.403-5.215-4.53-9.599-4.53h-9.746V107.002z"/>
<path fill="#FFFFFF" d="M193.25,102.693h-20.407l-4.156,12.016h-8.623l19.584-53.813h6.798l19.58,53.813h-8.615L193.25,102.693z
	 M190.91,95.439l-7.785-23.514h-0.157l-7.78,23.514H190.91z"/>
<path fill="#FFFFFF" d="M80.019,71.658c-0.468,0.465-1.23,0.465-1.692,0l-4.845-4.853c-0.471-0.464-0.471-1.226,0-1.692l4.845-4.85
	c0.462-0.457,1.225-0.457,1.692,0l4.852,4.85c0.462,0.467,0.462,1.228,0,1.692L80.019,71.658z"/>
<path fill="#FFFFFF" d="M55.356,74.018v0.287V74.018z"/>
<path fill="#FFFFFF" d="M55.383,74.658c0.003,0.031,0.017,0.049,0.024,0.074C55.399,74.707,55.386,74.689,55.383,74.658"/>
<path fill="#FFFFFF" d="M102.504,75.502c0.022-0.027,0.04-0.057,0.06-0.082c0.012-0.011,0.021-0.024,0.033-0.035
	c0.029-0.026,0.053-0.054,0.079-0.083c0.081-0.09,0.15-0.189,0.201-0.3c0.01-0.021,0.015-0.044,0.023-0.066
	c0.05-0.129,0.083-0.265,0.083-0.41v-6.251c-0.007-0.647-0.533-1.174-1.181-1.174h-6.243c-0.167,0-0.324,0.037-0.469,0.1
	c-0.018,0.008-0.031,0.023-0.048,0.033c-0.124,0.062-0.239,0.138-0.334,0.237c-0.001,0.001-0.002,0.001-0.003,0.002
	c-0.024,0.02-0.047,0.028,0.227-0.245L80.312,81.83c-0.529,0.527-0.837,0.643-1.144,0.643c-0.307,0-0.61-0.115-0.842-0.348
	L63.696,67.53c-0.01-0.005-0.018-0.01-0.023-0.015c-0.009-0.011-0.021-0.019-0.031-0.029c-0.026-0.028-0.054-0.052-0.083-0.078
	c-0.09-0.081-0.19-0.151-0.3-0.202c-0.021-0.009-0.043-0.014-0.065-0.022c-0.129-0.05-0.267-0.083-0.413-0.083h-6.247
	c-0.646,0-1.178,0.527-1.178,1.174v6.251c0,0.146,0.034,0.285,0.085,0.415c0.008,0.02,0.012,0.039,0.021,0.058
	c0.051,0.113,0.123,0.213,0.206,0.305c0.024,0.027,0.046,0.053,0.072,0.078c0.009,0.008,0.016,0.019,0.025,0.027
	c0.002,0,0.003,0.002,0.006,0.006l14.614,14.643c0.469,0.471,0.469,1.232,0,1.697L55.737,106.4c-0.083,0.086-0.142,0.17-0.19,0.256
	c-0.019,0.029-0.027,0.062-0.044,0.093c-0.025,0.047-0.048,0.091-0.066,0.142c-0.045,0.119-0.075,0.244-0.077,0.378
	c0,0.006-0.004,0.011-0.004,0.017v0.006v6.242v0.006c0,0.646,0.532,1.178,1.178,1.178h6.247c0.158,0,0.306-0.04,0.444-0.098
	c0.007-0.003,0.014-0.006,0.021-0.008c0.137-0.061,0.26-0.142,0.364-0.246c0.003-0.002,0.005-0.006,0.008-0.009
	c0.051-0.052,0.102-0.104,0.142-0.165c-0.041,0.062-0.088,0.121-0.14,0.178c0.019-0.021,0.039-0.025,0.055-0.043l14.65-14.635
	c0.231-0.234,0.535-0.354,0.842-0.354c0.307,0,0.614,0.119,0.851,0.354l14.656,14.646c0.078,0.078,0.154,0.133,0.228,0.18
	c0.053,0.035,0.114,0.056,0.172,0.082c0.015,0.007,0.029,0.015,0.044,0.021c0.138,0.056,0.283,0.097,0.439,0.097h6.255
	c0.646,0,1.169-0.531,1.169-1.178v-0.006v-6.242v-0.006c0-0.004-0.002-0.007-0.002-0.011c-0.003-0.13-0.035-0.253-0.079-0.37
	c-0.008-0.023-0.006-0.051-0.016-0.074c0.001,0.002,0.002,0.004,0.003,0.006c-0.001-0.003-0.002-0.005-0.003-0.008c0,0,0,0-0.001,0
	c-0.056-0.137-0.133-0.271-0.272-0.404l-14.663-14.67c-0.466-0.465-0.466-1.227,0-1.697L102.504,75.502z M102.88,106.821
	c-0.006-0.013-0.018-0.022-0.024-0.034c-0.002-0.005-0.003-0.01-0.005-0.014C102.86,106.791,102.871,106.805,102.88,106.821z
	 M87.04,92.662l13.44,13.445h-4.922c-0.647,0-1.183,0.531-1.183,1.178v4.936L80.929,98.785c-0.472-0.471-1.096-0.733-1.761-0.733
	c-0.67,0-1.296,0.266-1.749,0.731l-13.457,13.441v-4.939c0-0.646-0.535-1.178-1.181-1.178h-4.935L71.29,92.664
	c0.473-0.469,0.731-1.092,0.731-1.756c0-0.666-0.258-1.291-0.727-1.758L57.875,75.703h4.906c0.646,0,1.181-0.535,1.181-1.178V69.61
	l13.452,13.417c0.465,0.473,1.088,0.73,1.754,0.73c0.66,0,1.283-0.254,1.758-0.725l13.449-13.434v4.926
	c0,0.643,0.535,1.178,1.183,1.178h4.929L87.04,89.15C86.073,90.119,86.073,91.693,87.04,92.662z"/>
</svg>
