<?xml version="1.0" encoding="utf-8"?>
<!-- Generator: Adobe Illustrator 17.0.2, SVG Export Plug-In . SVG Version: 6.00 Build 0)  -->
<!DOCTYPE svg PUBLIC "-//W3C//DTD SVG 1.1//EN" "http://www.w3.org/Graphics/SVG/1.1/DTD/svg11.dtd">
<svg version="1.1" id="Layer_1" xmlns="http://www.w3.org/2000/svg" xmlns:xlink="http://www.w3.org/1999/xlink" x="0px" y="0px"
	 width="870px" height="133px" viewBox="0 0 870 133" style="enable-background:new 0 0 870 133;" xml:space="preserve">
<style type="text/css">
	.st0{fill:#FFFFFF;}
</style>
<path class="st0" d="M831.2,89.6c-2.3,0-4.1,1.9-4.1,4.1c0,2.3,1.9,4.1,4.1,4.1c2.3,0,4.1-1.9,4.1-4.1
	C835.3,91.5,833.5,89.6,831.2,89.6z M817.4,89.6c-2.3,0-4.1,1.9-4.1,4.1c0,2.3,1.8,4.1,4.1,4.1c2.3,0,4.1-1.9,4.1-4.1
	C821.5,91.5,819.6,89.6,817.4,89.6z M803.5,89.6c-2.3,0-4.1,1.9-4.1,4.1c0,2.3,1.9,4.1,4.1,4.1c2.3,0,4.2-1.9,4.2-4.1
	C807.7,91.5,805.8,89.6,803.5,89.6z M789.7,89.6c-2.3,0-4.1,1.9-4.1,4.1c0,2.3,1.8,4.1,4.1,4.1c2.3,0,4.1-1.9,4.1-4.1
	C793.8,91.5,792,89.6,789.7,89.6z M775.9,89.6c-2.3,0-4.1,1.9-4.1,4.1c0,2.3,1.8,4.1,4.1,4.1c2.3,0,4.1-1.9,4.1-4.1
	C780,91.5,778.2,89.6,775.9,89.6z M775.9,75.8c-2.3,0-4.1,1.9-4.1,4.1c0,2.3,1.8,4.1,4.1,4.1c2.3,0,4.1-1.9,4.1-4.1
	C780,77.7,778.2,75.8,775.9,75.8z M775.9,62c-2.3,0-4.1,1.9-4.1,4.1c0,2.3,1.8,4.1,4.1,4.1c2.3,0,4.1-1.9,4.1-4.1
	C780,63.9,778.2,62,775.9,62z M775.9,48.3c-2.3,0-4.1,1.9-4.1,4.1c0,2.3,1.8,4.1,4.1,4.1c2.3,0,4.1-1.9,4.1-4.1
	C780,50.1,778.2,48.3,775.9,48.3z M775.9,34.5c-2.3,0-4.1,1.9-4.1,4.1c0,2.3,1.8,4.1,4.1,4.1c2.3,0,4.1-1.9,4.1-4.1
	C780,36.3,778.2,34.5,775.9,34.5z M752,89.6c-2.3,0-4.1,1.9-4.1,4.1c0,2.3,1.9,4.1,4.1,4.1c2.3,0,4.1-1.9,4.1-4.1
	C756.1,91.5,754.3,89.6,752,89.6z M696.7,89.6c-2.3,0-4.1,1.9-4.1,4.1c0,2.3,1.9,4.1,4.1,4.1c2.3,0,4.1-1.9,4.1-4.1
	C700.8,91.5,699,89.6,696.7,89.6z M696.7,75.8c-2.3,0-4.1,1.9-4.1,4.1c0,2.3,1.9,4.1,4.1,4.1c2.3,0,4.1-1.9,4.1-4.1
	C700.8,77.7,699,75.8,696.7,75.8z M696.7,62c-2.3,0-4.1,1.9-4.1,4.1c0,2.3,1.9,4.1,4.1,4.1c2.3,0,4.1-1.9,4.1-4.1
	C700.8,63.9,699,62,696.7,62z M696.7,48.3c-2.3,0-4.1,1.9-4.1,4.1c0,2.3,1.9,4.1,4.1,4.1c2.3,0,4.1-1.9,4.1-4.1
	C700.8,50.1,699,48.3,696.7,48.3z M696.7,34.5c-2.3,0-4.1,1.9-4.1,4.1c0,2.3,1.9,4.1,4.1,4.1c2.3,0,4.1-1.9,4.1-4.1
	C700.8,36.3,699,34.5,696.7,34.5z M710.5,62c-2.3,0-4.1,1.9-4.1,4.1c0,2.3,1.9,4.1,4.1,4.1c2.3,0,4.2-1.9,4.2-4.1
	C714.7,63.9,712.8,62,710.5,62z M710.5,34.5c-2.3,0-4.1,1.9-4.1,4.1c0,2.3,1.9,4.1,4.1,4.1c2.3,0,4.2-1.9,4.2-4.1
	C714.7,36.3,712.8,34.5,710.5,34.5z M724.3,62c-2.3,0-4.1,1.9-4.1,4.1c0,2.3,1.9,4.1,4.1,4.1c2.3,0,4.1-1.9,4.1-4.1
	C728.5,63.9,726.6,62,724.3,62z M724.3,34.5c-2.3,0-4.1,1.9-4.1,4.1c0,2.3,1.9,4.1,4.1,4.1c2.3,0,4.1-1.9,4.1-4.1
	C728.5,36.3,726.6,34.5,724.3,34.5z M738.2,62c-2.3,0-4.1,1.9-4.1,4.1c0,2.3,1.9,4.1,4.1,4.1c2.3,0,4.1-1.9,4.1-4.1
	C742.3,63.9,740.4,62,738.2,62z M738.2,34.5c-2.3,0-4.1,1.9-4.1,4.1c0,2.3,1.9,4.1,4.1,4.1c2.3,0,4.1-1.9,4.1-4.1
	C742.3,36.3,740.4,34.5,738.2,34.5z M752,75.8c-2.3,0-4.1,1.9-4.1,4.1c0,2.3,1.9,4.1,4.1,4.1c2.3,0,4.1-1.9,4.1-4.1
	C756.1,77.7,754.3,75.8,752,75.8z M752,62c-2.3,0-4.1,1.9-4.1,4.1c0,2.3,1.9,4.1,4.1,4.1c2.3,0,4.1-1.9,4.1-4.1
	C756.1,63.9,754.3,62,752,62z M752,48.3c-2.3,0-4.1,1.9-4.1,4.1c0,2.3,1.9,4.1,4.1,4.1c2.3,0,4.1-1.9,4.1-4.1
	C756.1,50.1,754.3,48.3,752,48.3z M752,34.5c-2.3,0-4.1,1.9-4.1,4.1c0,2.3,1.9,4.1,4.1,4.1c2.3,0,4.1-1.9,4.1-4.1
	C756.1,36.3,754.3,34.5,752,34.5z M621.4,89.6c-2.3,0-4.1,1.9-4.1,4.1c0,2.3,1.9,4.1,4.1,4.1c2.3,0,4.1-1.9,4.1-4.1
	C625.5,91.5,623.7,89.6,621.4,89.6z M593.7,34.5c-2.3,0-4.1,1.9-4.1,4.1c0,2.3,1.9,4.1,4.1,4.1c2.3,0,4.1-1.9,4.1-4.1
	C597.9,36.3,596,34.5,593.7,34.5z M607.6,34.5c-2.3,0-4.1,1.9-4.1,4.1c0,2.3,1.9,4.1,4.1,4.1c2.3,0,4.1-1.9,4.1-4.1
	C611.7,36.3,609.8,34.5,607.6,34.5z M621.4,75.8c-2.3,0-4.1,1.9-4.1,4.1c0,2.3,1.9,4.1,4.1,4.1c2.3,0,4.1-1.9,4.1-4.1
	C625.5,77.7,623.7,75.8,621.4,75.8z M621.4,62c-2.3,0-4.1,1.9-4.1,4.1c0,2.3,1.9,4.1,4.1,4.1c2.3,0,4.1-1.9,4.1-4.1
	C625.5,63.9,623.7,62,621.4,62z M621.4,48.3c-2.3,0-4.1,1.9-4.1,4.1c0,2.3,1.9,4.1,4.1,4.1c2.3,0,4.1-1.9,4.1-4.1
	C625.5,50.1,623.7,48.3,621.4,48.3z M621.4,34.5c-2.3,0-4.1,1.9-4.1,4.1c0,2.3,1.9,4.1,4.1,4.1c2.3,0,4.1-1.9,4.1-4.1
	C625.5,36.3,623.7,34.5,621.4,34.5z M635.2,34.5c-2.3,0-4.1,1.9-4.1,4.1c0,2.3,1.9,4.1,4.1,4.1c2.3,0,4.2-1.9,4.2-4.1
	C639.4,36.3,637.5,34.5,635.2,34.5z M649,34.5c-2.3,0-4.1,1.9-4.1,4.1c0,2.3,1.9,4.1,4.1,4.1c2.3,0,4.1-1.9,4.1-4.1
	C653.2,36.3,651.3,34.5,649,34.5z M570,89.6c-2.3,0-4.1,1.9-4.1,4.1c0,2.3,1.9,4.1,4.1,4.1c2.3,0,4.1-1.9,4.1-4.1
	C574.1,91.5,572.3,89.6,570,89.6z M514.7,89.6c-2.3,0-4.1,1.9-4.1,4.1c0,2.3,1.9,4.1,4.1,4.1c2.3,0,4.1-1.9,4.1-4.1
	C518.8,91.5,517,89.6,514.7,89.6z M514.7,75.8c-2.3,0-4.1,1.9-4.1,4.1c0,2.3,1.9,4.1,4.1,4.1c2.3,0,4.1-1.9,4.1-4.1
	C518.8,77.7,517,75.8,514.7,75.8z M514.7,62c-2.3,0-4.1,1.9-4.1,4.1c0,2.3,1.9,4.1,4.1,4.1c2.3,0,4.1-1.9,4.1-4.1
	C518.8,63.9,517,62,514.7,62z M514.7,48.3c-2.3,0-4.1,1.9-4.1,4.1c0,2.3,1.9,4.1,4.1,4.1c2.3,0,4.1-1.9,4.1-4.1
	C518.8,50.1,517,48.3,514.7,48.3z M514.7,34.5c-2.3,0-4.1,1.9-4.1,4.1c0,2.3,1.9,4.1,4.1,4.1c2.3,0,4.1-1.9,4.1-4.1
	C518.8,36.3,517,34.5,514.7,34.5z M528.5,34.5c-2.3,0-4.1,1.9-4.1,4.1c0,2.3,1.9,4.1,4.1,4.1c2.3,0,4.1-1.9,4.1-4.1
	C532.6,36.3,530.8,34.5,528.5,34.5z M542.3,34.5c-2.3,0-4.1,1.9-4.1,4.1c0,2.3,1.9,4.1,4.1,4.1c2.3,0,4.1-1.9,4.1-4.1
	C546.5,36.3,544.6,34.5,542.3,34.5z M556.2,34.5c-2.3,0-4.1,1.9-4.1,4.1c0,2.3,1.9,4.1,4.1,4.1c2.3,0,4.1-1.9,4.1-4.1
	C560.3,36.3,558.4,34.5,556.2,34.5z M570,75.8c-2.3,0-4.1,1.9-4.1,4.1c0,2.3,1.9,4.1,4.1,4.1c2.3,0,4.1-1.9,4.1-4.1
	C574.1,77.7,572.3,75.8,570,75.8z M570,62c-2.3,0-4.1,1.9-4.1,4.1c0,2.3,1.9,4.1,4.1,4.1c2.3,0,4.1-1.9,4.1-4.1
	C574.1,63.9,572.3,62,570,62z M570,48.3c-2.3,0-4.1,1.9-4.1,4.1c0,2.3,1.9,4.1,4.1,4.1c2.3,0,4.1-1.9,4.1-4.1
	C574.1,50.1,572.3,48.3,570,48.3z M570,34.5c-2.3,0-4.1,1.9-4.1,4.1c0,2.3,1.9,4.1,4.1,4.1c2.3,0,4.1-1.9,4.1-4.1
	C574.1,36.3,572.3,34.5,570,34.5z M490.6,89.6c-2.3,0-4.1,1.9-4.1,4.1c0,2.3,1.9,4.1,4.1,4.1c2.3,0,4.1-1.9,4.1-4.1
	C494.7,91.5,492.9,89.6,490.6,89.6z M435.3,89.6c-2.3,0-4.1,1.9-4.1,4.1c0,2.3,1.9,4.1,4.1,4.1c2.3,0,4.1-1.9,4.1-4.1
	C439.4,91.5,437.5,89.6,435.3,89.6z M435.3,75.8c-2.3,0-4.1,1.9-4.1,4.1c0,2.3,1.9,4.1,4.1,4.1c2.3,0,4.1-1.9,4.1-4.1
	C439.4,77.7,437.5,75.8,435.3,75.8z M435.3,62c-2.3,0-4.1,1.9-4.1,4.1c0,2.3,1.9,4.1,4.1,4.1c2.3,0,4.1-1.9,4.1-4.1
	C439.4,63.9,437.5,62,435.3,62z M435.3,48.3c-2.3,0-4.1,1.9-4.1,4.1c0,2.3,1.9,4.1,4.1,4.1c2.3,0,4.1-1.9,4.1-4.1
	C439.4,50.1,437.5,48.3,435.3,48.3z M435.3,34.5c-2.3,0-4.1,1.9-4.1,4.1c0,2.3,1.9,4.1,4.1,4.1c2.3,0,4.1-1.9,4.1-4.1
	C439.4,36.3,437.5,34.5,435.3,34.5z M449.1,62c-2.3,0-4.1,1.9-4.1,4.1c0,2.3,1.9,4.1,4.1,4.1c2.3,0,4.1-1.9,4.1-4.1
	C453.2,63.9,451.4,62,449.1,62z M449.1,34.5c-2.3,0-4.1,1.9-4.1,4.1c0,2.3,1.9,4.1,4.1,4.1c2.3,0,4.1-1.9,4.1-4.1
	C453.2,36.3,451.4,34.5,449.1,34.5z M462.9,62c-2.3,0-4.1,1.9-4.1,4.1c0,2.3,1.9,4.1,4.1,4.1c2.3,0,4.2-1.9,4.2-4.1
	C467.1,63.9,465.2,62,462.9,62z M462.9,34.5c-2.3,0-4.1,1.9-4.1,4.1c0,2.3,1.9,4.1,4.1,4.1c2.3,0,4.2-1.9,4.2-4.1
	C467.1,36.3,465.2,34.5,462.9,34.5z M476.7,62c-2.3,0-4.1,1.9-4.1,4.1c0,2.3,1.9,4.1,4.1,4.1c2.3,0,4.1-1.9,4.1-4.1
	C480.9,63.9,479,62,476.7,62z M476.7,34.5c-2.3,0-4.1,1.9-4.1,4.1c0,2.3,1.9,4.1,4.1,4.1c2.3,0,4.1-1.9,4.1-4.1
	C480.9,36.3,479,34.5,476.7,34.5z M490.6,75.8c-2.3,0-4.1,1.9-4.1,4.1c0,2.3,1.9,4.1,4.1,4.1c2.3,0,4.1-1.9,4.1-4.1
	C494.7,77.7,492.9,75.8,490.6,75.8z M490.6,62c-2.3,0-4.1,1.9-4.1,4.1c0,2.3,1.9,4.1,4.1,4.1c2.3,0,4.1-1.9,4.1-4.1
	C494.7,63.9,492.9,62,490.6,62z M490.6,48.3c-2.3,0-4.1,1.9-4.1,4.1c0,2.3,1.9,4.1,4.1,4.1c2.3,0,4.1-1.9,4.1-4.1
	C494.7,50.1,492.9,48.3,490.6,48.3z M490.6,34.5c-2.3,0-4.1,1.9-4.1,4.1c0,2.3,1.9,4.1,4.1,4.1c2.3,0,4.1-1.9,4.1-4.1
	C494.7,36.3,492.9,34.5,490.6,34.5z M383.7,89.6c-2.3,0-4.1,1.9-4.1,4.1c0,2.3,1.9,4.1,4.1,4.1c2.3,0,4.1-1.9,4.1-4.1
	C387.8,91.5,386,89.6,383.7,89.6z M356,34.5c-2.3,0-4.1,1.9-4.1,4.1c0,2.3,1.9,4.1,4.1,4.1c2.3,0,4.1-1.9,4.1-4.1
	C360.2,36.3,358.3,34.5,356,34.5z M369.9,34.5c-2.3,0-4.1,1.9-4.1,4.1c0,2.3,1.9,4.1,4.1,4.1c2.3,0,4.1-1.9,4.1-4.1
	C374,36.3,372.2,34.5,369.9,34.5z M383.7,75.8c-2.3,0-4.1,1.9-4.1,4.1c0,2.3,1.9,4.1,4.1,4.1c2.3,0,4.1-1.9,4.1-4.1
	C387.8,77.7,386,75.8,383.7,75.8z M383.7,62c-2.3,0-4.1,1.9-4.1,4.1c0,2.3,1.9,4.1,4.1,4.1c2.3,0,4.1-1.9,4.1-4.1
	C387.8,63.9,386,62,383.7,62z M383.7,48.3c-2.3,0-4.1,1.9-4.1,4.1c0,2.3,1.9,4.1,4.1,4.1c2.3,0,4.1-1.9,4.1-4.1
	C387.8,50.1,386,48.3,383.7,48.3z M383.7,34.5c-2.3,0-4.1,1.9-4.1,4.1c0,2.3,1.9,4.1,4.1,4.1c2.3,0,4.1-1.9,4.1-4.1
	C387.8,36.3,386,34.5,383.7,34.5z M397.5,34.5c-2.3,0-4.1,1.9-4.1,4.1c0,2.3,1.8,4.1,4.1,4.1c2.3,0,4.1-1.9,4.1-4.1
	C401.7,36.3,399.8,34.5,397.5,34.5z M411.3,34.5c-2.3,0-4.1,1.9-4.1,4.1c0,2.3,1.9,4.1,4.1,4.1c2.3,0,4.1-1.9,4.1-4.1
	C415.5,36.3,413.6,34.5,411.3,34.5z M332.3,89.6c-2.3,0-4.1,1.9-4.1,4.1c0,2.3,1.9,4.1,4.1,4.1c2.3,0,4.1-1.9,4.1-4.1
	C336.4,91.5,334.6,89.6,332.3,89.6z M318.5,89.6c-2.3,0-4.1,1.9-4.1,4.1c0,2.3,1.9,4.1,4.1,4.1c2.3,0,4.1-1.9,4.1-4.1
	C322.6,91.5,320.7,89.6,318.5,89.6z M304.6,89.6c-2.3,0-4.1,1.9-4.1,4.1c0,2.3,1.9,4.1,4.1,4.1c2.3,0,4.1-1.9,4.1-4.1
	C308.8,91.5,306.9,89.6,304.6,89.6z M290.8,89.6c-2.3,0-4.2,1.9-4.2,4.1c0,2.3,1.9,4.1,4.2,4.1c2.3,0,4.1-1.9,4.1-4.1
	C294.9,91.5,293.1,89.6,290.8,89.6z M277,89.6c-2.3,0-4.1,1.9-4.1,4.1c0,2.3,1.9,4.1,4.1,4.1c2.3,0,4.1-1.9,4.1-4.1
	C281.1,91.5,279.3,89.6,277,89.6z M277,62c-2.3,0-4.1,1.9-4.1,4.1c0,2.3,1.9,4.1,4.1,4.1c2.3,0,4.1-1.9,4.1-4.1
	C281.1,63.9,279.3,62,277,62z M277,48.3c-2.3,0-4.1,1.9-4.1,4.1c0,2.3,1.9,4.1,4.1,4.1c2.3,0,4.1-1.9,4.1-4.1
	C281.1,50.1,279.3,48.3,277,48.3z M277,34.5c-2.3,0-4.1,1.9-4.1,4.1c0,2.3,1.9,4.1,4.1,4.1c2.3,0,4.1-1.9,4.1-4.1
	C281.1,36.3,279.3,34.5,277,34.5z M290.8,62c-2.3,0-4.2,1.9-4.2,4.1c0,2.3,1.9,4.1,4.2,4.1c2.3,0,4.1-1.9,4.1-4.1
	C294.9,63.9,293.1,62,290.8,62z M290.8,34.5c-2.3,0-4.2,1.9-4.2,4.1c0,2.3,1.9,4.1,4.2,4.1c2.3,0,4.1-1.9,4.1-4.1
	C294.9,36.3,293.1,34.5,290.8,34.5z M304.6,62c-2.3,0-4.1,1.9-4.1,4.1c0,2.3,1.9,4.1,4.1,4.1c2.3,0,4.1-1.9,4.1-4.1
	C308.8,63.9,306.9,62,304.6,62z M304.6,34.5c-2.3,0-4.1,1.9-4.1,4.1c0,2.3,1.9,4.1,4.1,4.1c2.3,0,4.1-1.9,4.1-4.1
	C308.8,36.3,306.9,34.5,304.6,34.5z M318.5,62c-2.3,0-4.1,1.9-4.1,4.1c0,2.3,1.9,4.1,4.1,4.1c2.3,0,4.1-1.9,4.1-4.1
	C322.6,63.9,320.7,62,318.5,62z M318.5,34.5c-2.3,0-4.1,1.9-4.1,4.1c0,2.3,1.9,4.1,4.1,4.1c2.3,0,4.1-1.9,4.1-4.1
	C322.6,36.3,320.7,34.5,318.5,34.5z M332.3,75.8c-2.3,0-4.1,1.9-4.1,4.1c0,2.3,1.9,4.1,4.1,4.1c2.3,0,4.1-1.9,4.1-4.1
	C336.4,77.7,334.6,75.8,332.3,75.8z M332.3,62c-2.3,0-4.1,1.9-4.1,4.1c0,2.3,1.9,4.1,4.1,4.1c2.3,0,4.1-1.9,4.1-4.1
	C336.4,63.9,334.6,62,332.3,62z M332.3,34.5c-2.3,0-4.1,1.9-4.1,4.1c0,2.3,1.9,4.1,4.1,4.1c2.3,0,4.1-1.9,4.1-4.1
	C336.4,36.3,334.6,34.5,332.3,34.5z M253.1,89.6c-2.3,0-4.1,1.9-4.1,4.1c0,2.3,1.9,4.1,4.1,4.1c2.3,0,4.1-1.9,4.1-4.1
	C257.2,91.5,255.3,89.6,253.1,89.6z M239.2,89.6c-2.3,0-4.1,1.9-4.1,4.1c0,2.3,1.9,4.1,4.1,4.1s4.1-1.9,4.1-4.1
	C243.4,91.5,241.5,89.6,239.2,89.6z M225.4,89.6c-2.3,0-4.1,1.9-4.1,4.1c0,2.3,1.8,4.1,4.1,4.1c2.3,0,4.1-1.9,4.1-4.1
	C229.5,91.5,227.7,89.6,225.4,89.6z M211.6,89.6c-2.3,0-4.1,1.9-4.1,4.1c0,2.3,1.9,4.1,4.1,4.1c2.3,0,4.1-1.9,4.1-4.1
	C215.7,91.5,213.9,89.6,211.6,89.6z M197.7,89.6c-2.3,0-4.1,1.9-4.1,4.1c0,2.3,1.9,4.1,4.1,4.1c2.3,0,4.1-1.9,4.1-4.1
	C201.9,91.5,200,89.6,197.7,89.6z M197.7,75.8c-2.3,0-4.1,1.9-4.1,4.1c0,2.3,1.9,4.1,4.1,4.1c2.3,0,4.1-1.9,4.1-4.1
	C201.9,77.7,200,75.8,197.7,75.8z M197.7,62c-2.3,0-4.1,1.9-4.1,4.1c0,2.3,1.9,4.1,4.1,4.1c2.3,0,4.1-1.9,4.1-4.1
	C201.9,63.9,200,62,197.7,62z M197.7,48.3c-2.3,0-4.1,1.9-4.1,4.1c0,2.3,1.9,4.1,4.1,4.1c2.3,0,4.1-1.9,4.1-4.1
	C201.9,50.1,200,48.3,197.7,48.3z M197.7,34.5c-2.3,0-4.1,1.9-4.1,4.1c0,2.3,1.9,4.1,4.1,4.1c2.3,0,4.1-1.9,4.1-4.1
	C201.9,36.3,200,34.5,197.7,34.5z M211.6,62c-2.3,0-4.1,1.9-4.1,4.1c0,2.3,1.9,4.1,4.1,4.1c2.3,0,4.1-1.9,4.1-4.1
	C215.7,63.9,213.9,62,211.6,62z M211.6,34.5c-2.3,0-4.1,1.9-4.1,4.1c0,2.3,1.9,4.1,4.1,4.1c2.3,0,4.1-1.9,4.1-4.1
	C215.7,36.3,213.9,34.5,211.6,34.5z M225.4,62c-2.3,0-4.1,1.9-4.1,4.1c0,2.3,1.8,4.1,4.1,4.1c2.3,0,4.1-1.9,4.1-4.1
	C229.5,63.9,227.7,62,225.4,62z M225.4,34.5c-2.3,0-4.1,1.9-4.1,4.1c0,2.3,1.8,4.1,4.1,4.1c2.3,0,4.1-1.9,4.1-4.1
	C229.5,36.3,227.7,34.5,225.4,34.5z M239.2,62c-2.3,0-4.1,1.9-4.1,4.1c0,2.3,1.9,4.1,4.1,4.1s4.1-1.9,4.1-4.1
	C243.4,63.9,241.5,62,239.2,62z M239.2,34.5c-2.3,0-4.1,1.9-4.1,4.1c0,2.3,1.9,4.1,4.1,4.1s4.1-1.9,4.1-4.1
	C243.4,36.3,241.5,34.5,239.2,34.5z M253.1,75.8c-2.3,0-4.1,1.9-4.1,4.1c0,2.3,1.9,4.1,4.1,4.1c2.3,0,4.1-1.9,4.1-4.1
	C257.2,77.7,255.3,75.8,253.1,75.8z M253.1,48.3c-2.3,0-4.1,1.9-4.1,4.1c0,2.3,1.9,4.1,4.1,4.1c2.3,0,4.1-1.9,4.1-4.1
	C257.2,50.1,255.3,48.3,253.1,48.3z M253.1,34.5c-2.3,0-4.1,1.9-4.1,4.1c0,2.3,1.9,4.1,4.1,4.1c2.3,0,4.1-1.9,4.1-4.1
	C257.2,36.3,255.3,34.5,253.1,34.5z M173.7,89.6c-2.3,0-4.1,1.9-4.1,4.1c0,2.3,1.9,4.1,4.1,4.1c2.3,0,4.1-1.9,4.1-4.1
	C177.8,91.5,175.9,89.6,173.7,89.6z M159.8,89.6c-2.3,0-4.1,1.9-4.1,4.1c0,2.3,1.9,4.1,4.1,4.1c2.3,0,4.1-1.9,4.1-4.1
	C164,91.5,162.1,89.6,159.8,89.6z M146,89.6c-2.3,0-4.1,1.9-4.1,4.1c0,2.3,1.9,4.1,4.1,4.1c2.3,0,4.1-1.9,4.1-4.1
	C150.1,91.5,148.3,89.6,146,89.6z M132.2,89.6c-2.3,0-4.1,1.9-4.1,4.1c0,2.3,1.9,4.1,4.1,4.1c2.3,0,4.1-1.9,4.1-4.1
	C136.3,91.5,134.5,89.6,132.2,89.6z M118.4,89.6c-2.3,0-4.1,1.9-4.1,4.1c0,2.3,1.9,4.1,4.1,4.1c2.3,0,4.1-1.9,4.1-4.1
	C122.5,91.5,120.6,89.6,118.4,89.6z M118.4,75.8c-2.3,0-4.1,1.9-4.1,4.1c0,2.3,1.9,4.1,4.1,4.1c2.3,0,4.1-1.9,4.1-4.1
	C122.5,77.7,120.6,75.8,118.4,75.8z M118.4,62c-2.3,0-4.1,1.9-4.1,4.1c0,2.3,1.9,4.1,4.1,4.1c2.3,0,4.1-1.9,4.1-4.1
	C122.5,63.9,120.6,62,118.4,62z M118.4,48.3c-2.3,0-4.1,1.9-4.1,4.1c0,2.3,1.9,4.1,4.1,4.1c2.3,0,4.1-1.9,4.1-4.1
	C122.5,50.1,120.6,48.3,118.4,48.3z M118.4,34.5c-2.3,0-4.1,1.9-4.1,4.1c0,2.3,1.9,4.1,4.1,4.1c2.3,0,4.1-1.9,4.1-4.1
	C122.5,36.3,120.6,34.5,118.4,34.5z M173.7,75.8c-2.3,0-4.1,1.9-4.1,4.1c0,2.3,1.9,4.1,4.1,4.1c2.3,0,4.1-1.9,4.1-4.1
	C177.8,77.7,175.9,75.8,173.7,75.8z M173.7,62c-2.3,0-4.1,1.9-4.1,4.1c0,2.3,1.9,4.1,4.1,4.1c2.3,0,4.1-1.9,4.1-4.1
	C177.8,63.9,175.9,62,173.7,62z M173.7,48.3c-2.3,0-4.1,1.9-4.1,4.1c0,2.3,1.9,4.1,4.1,4.1c2.3,0,4.1-1.9,4.1-4.1
	C177.8,50.1,175.9,48.3,173.7,48.3z M173.7,34.5c-2.3,0-4.1,1.9-4.1,4.1c0,2.3,1.9,4.1,4.1,4.1c2.3,0,4.1-1.9,4.1-4.1
	C177.8,36.3,175.9,34.5,173.7,34.5z M94.8,89.6c-2.3,0-4.1,1.9-4.1,4.1c0,2.3,1.9,4.1,4.1,4.1c2.3,0,4.1-1.9,4.1-4.1
	C98.9,91.5,97.1,89.6,94.8,89.6z M80.9,89.6c-2.3,0-4.1,1.9-4.1,4.1c0,2.3,1.9,4.1,4.1,4.1c2.3,0,4.1-1.9,4.1-4.1
	C85.1,91.5,83.2,89.6,80.9,89.6z M67.1,89.6c-2.3,0-4.1,1.9-4.1,4.1c0,2.3,1.8,4.1,4.1,4.1c2.3,0,4.1-1.9,4.1-4.1
	C71.3,91.5,69.4,89.6,67.1,89.6z M53.3,89.6c-2.3,0-4.1,1.9-4.1,4.1c0,2.3,1.9,4.1,4.1,4.1c2.3,0,4.1-1.9,4.1-4.1
	C57.4,91.5,55.6,89.6,53.3,89.6z M39.5,89.6c-2.3,0-4.1,1.9-4.1,4.1c0,2.3,1.8,4.1,4.1,4.1c2.3,0,4.1-1.9,4.1-4.1
	C43.6,91.5,41.7,89.6,39.5,89.6z M39.5,62c-2.3,0-4.1,1.9-4.1,4.1c0,2.3,1.8,4.1,4.1,4.1c2.3,0,4.1-1.9,4.1-4.1
	C43.6,63.9,41.7,62,39.5,62z M39.5,48.3c-2.3,0-4.1,1.9-4.1,4.1c0,2.3,1.8,4.1,4.1,4.1c2.3,0,4.1-1.9,4.1-4.1
	C43.6,50.1,41.7,48.3,39.5,48.3z M39.5,34.5c-2.3,0-4.1,1.9-4.1,4.1c0,2.3,1.8,4.1,4.1,4.1c2.3,0,4.1-1.9,4.1-4.1
	C43.6,36.3,41.7,34.5,39.5,34.5z M53.3,62c-2.3,0-4.1,1.9-4.1,4.1c0,2.3,1.9,4.1,4.1,4.1c2.3,0,4.1-1.9,4.1-4.1
	C57.4,63.9,55.6,62,53.3,62z M53.3,34.5c-2.3,0-4.1,1.9-4.1,4.1c0,2.3,1.9,4.1,4.1,4.1c2.3,0,4.1-1.9,4.1-4.1
	C57.4,36.3,55.6,34.5,53.3,34.5z M67.1,62c-2.3,0-4.1,1.9-4.1,4.1c0,2.3,1.8,4.1,4.1,4.1c2.3,0,4.1-1.9,4.1-4.1
	C71.3,63.9,69.4,62,67.1,62z M67.1,34.5c-2.3,0-4.1,1.9-4.1,4.1c0,2.3,1.8,4.1,4.1,4.1c2.3,0,4.1-1.9,4.1-4.1
	C71.3,36.3,69.4,34.5,67.1,34.5z M80.9,62c-2.3,0-4.1,1.9-4.1,4.1c0,2.3,1.9,4.1,4.1,4.1c2.3,0,4.1-1.9,4.1-4.1
	C85.1,63.9,83.2,62,80.9,62z M80.9,34.5c-2.3,0-4.1,1.9-4.1,4.1c0,2.3,1.9,4.1,4.1,4.1c2.3,0,4.1-1.9,4.1-4.1
	C85.1,36.3,83.2,34.5,80.9,34.5z M94.8,75.8c-2.3,0-4.1,1.9-4.1,4.1c0,2.3,1.9,4.1,4.1,4.1c2.3,0,4.1-1.9,4.1-4.1
	C98.9,77.7,97.1,75.8,94.8,75.8z M94.8,62c-2.3,0-4.1,1.9-4.1,4.1c0,2.3,1.9,4.1,4.1,4.1c2.3,0,4.1-1.9,4.1-4.1
	C98.9,63.9,97.1,62,94.8,62z M94.8,34.5c-2.3,0-4.1,1.9-4.1,4.1c0,2.3,1.9,4.1,4.1,4.1c2.3,0,4.1-1.9,4.1-4.1
	C98.9,36.3,97.1,34.5,94.8,34.5z M673,89.6c-2.3,0-4.1,1.9-4.1,4.1c0,2.3,1.9,4.1,4.1,4.1c2.3,0,4.1-1.9,4.1-4.1
	C677.1,91.5,675.3,89.6,673,89.6z M673,75.8c-2.3,0-4.1,1.9-4.1,4.1c0,2.3,1.9,4.1,4.1,4.1c2.3,0,4.1-1.9,4.1-4.1
	C677.1,77.7,675.3,75.8,673,75.8z M673,62c-2.3,0-4.1,1.9-4.1,4.1c0,2.3,1.9,4.1,4.1,4.1c2.3,0,4.1-1.9,4.1-4.1
	C677.1,63.9,675.3,62,673,62z M673,48.3c-2.3,0-4.1,1.9-4.1,4.1c0,2.3,1.9,4.1,4.1,4.1c2.3,0,4.1-1.9,4.1-4.1
	C677.1,50.1,675.3,48.3,673,48.3z M673,34.5c-2.3,0-4.1,1.9-4.1,4.1c0,2.3,1.9,4.1,4.1,4.1c2.3,0,4.1-1.9,4.1-4.1
	C677.1,36.3,675.3,34.5,673,34.5z"/>
</svg>
